<svg id="Layer_1" data-name="Layer 1" xmlns="http://www.w3.org/2000/svg" xmlns:xlink="http://www.w3.org/1999/xlink" viewBox="0 0 420.59 346.83"><defs><style>.cls-1{fill:#fff;}.cls-2{clip-path:url(#clip-path);}.cls-3{fill:#e22424;}.cls-4{fill:#ffd524;}.cls-5{fill-rule:evenodd;}.cls-6{fill:#0c0c0c;}</style><clipPath id="clip-path" transform="translate(25.84 -4.54)"><circle id="_Clipping_Path_" data-name="&lt;Clipping Path&gt;" class="cls-1" cx="189" cy="199.5" r="148.61"/></clipPath></defs><title>logo</title><circle id="_Clipping_Path_2" data-name="&lt;Clipping Path&gt;" class="cls-1" cx="214.85" cy="194.96" r="148.61"/><g class="cls-2"><path class="cls-3" d="M154.4,133a36,36,0,0,1-2.43,2.94,17.16,17.16,0,0,1-8.11,4.43,18.57,18.57,0,0,1-14.26-1.92,16.7,16.7,0,0,1-6.95-7.21,15.73,15.73,0,0,1,1.22-16.47c3.46-5.19,8.59-7.5,14.7-7.74a17.89,17.89,0,0,1,11.17,3.33,16.9,16.9,0,0,1,6.34,7.87c0.06,0.15.14,0.29,0.24,0.49l18.25-7.87,0.52-1.37a38.11,38.11,0,0,0-15.94-17.92A38.74,38.74,0,0,0,143,86.28a39.57,39.57,0,0,0-7.39-.07,41.29,41.29,0,0,0-6.81,1.21A38.14,38.14,0,0,0,100,122.65a34.82,34.82,0,0,0,.88,9.49,36.56,36.56,0,0,0,7.47,15.31,38.79,38.79,0,0,0,10.62,9,39.22,39.22,0,0,0,17,5.3,40.81,40.81,0,0,0,8.17-.21,14.45,14.45,0,0,1,2.36-3.81,134.59,134.59,0,0,0,15.16-22.19c0.06-.12.14-0.21,0.2-0.32l-7.16-2.74C154.61,132.69,154.52,132.86,154.4,133Z" transform="translate(25.84 -4.54)"/><circle class="cls-4" cx="164.62" cy="119.23" r="18.07"/><g id="_Group_" data-name="&lt;Group&gt;"><path id="_Path_" data-name="&lt;Path&gt;" class="cls-5" d="M75,143.67L-25.84,260.22,73.87,157.08,38.15,238l42.12-55.64-12.15,43.3,23.65-29L104.37,181l-4,36.9,32.8-45.52-10.93,33.06,49.9-73.89,71.29,78.33-40.52-79.48c15.93,21.92,68.43,79.44,64.51,72s-33.53-64.49-33.53-64.49,45.63,54.86,43.77,51.93c-1.11-1.74-21.08-34.24-37.09-60.28l84.22,112.89-35-73.33c11.64,12.51,51.88,55.72,51.45,54.64-0.5-1.26-31.69-50.88-31.69-50.88l85.25,87.3L301.76,147l-23,19.65L218.89,90.48l-27,36.9-23-23-55.82,70Z" transform="translate(25.84 -4.54)"/></g></g><path id="_Compound_Clipping_Path_" data-name="&lt;Compound Clipping Path&gt;" d="M189,351.37c-83.74,0-151.87-68.13-151.87-151.87S105.26,47.63,189,47.63,340.87,115.76,340.87,199.5,272.74,351.37,189,351.37Zm0-297.22c-80.15,0-145.35,65.2-145.35,145.35S108.85,344.85,189,344.85s145.35-65.2,145.35-145.35S269.15,54.15,189,54.15Z" transform="translate(25.84 -4.54)"/><path d="M128.63,316.17c0.86-.23,1-0.56,1-2V301.85c0-1.06-.17-1.35-1-1.55v-3.07h15.22V304h-4.72v-1.35c0-1.32-.36-1.78-1.62-1.78h-2.84V306h5v3.66h-5v6h2.41c1.75,0,2-.3,2-2V312h4.72v7.29H128.63v-3.07Z" transform="translate(25.84 -4.54)"/><path d="M161.24,303.9h-4.79v-1c0-1.68-.76-2.54-2.15-2.54a2.08,2.08,0,0,0-2.38,2.31c0,1.62.86,2.18,3.14,2.9l1.48,0.46c4,1.29,5.31,3.27,5.31,6.7,0,4.29-2.18,6.9-7.66,6.9a11.76,11.76,0,0,1-7.29-2V312h5v1.25c0,1.78.66,2.71,2.31,2.71,1.95,0,2.54-1.25,2.54-2.71,0-1.75-.59-2.54-3.66-3.43-4-1.22-6.24-2.81-6.24-6.7,0-4.39,2.44-6.4,7.36-6.4a12,12,0,0,1,7.06,2.15v5Z" transform="translate(25.84 -4.54)"/><path d="M168.2,316.17c1-.33,1.15-0.69,1.15-1.85V300.7H168.2a1,1,0,0,0-1.22,1.16v4.09h-3.76v-8.71h17.16v8.71h-3.76v-4.09a1,1,0,0,0-1.19-1.16h-1.16v13.66c0,1.12.17,1.49,1.16,1.82v3.07H168.2v-3.07Z" transform="translate(25.84 -4.54)"/><path d="M182.33,314.76a2.41,2.41,0,1,1-2.41,2.41A2.4,2.4,0,0,1,182.33,314.76Z" transform="translate(25.84 -4.54)"/><path d="M210.31,319.24H195.66v-4c0-4.22,1-5.54,4.88-8.05l2.58-1.65c1.58-1,2.24-1.72,2.24-3a2,2,0,0,0-2.28-2.11c-1.55,0-2.28.66-2.28,1.88v1.95H196v-5.35a11.78,11.78,0,0,1,7.26-2.11c4.72,0,7.23,1.88,7.23,6.14,0,3.2-1.22,4.39-4.29,6.37l-2.87,1.85c-2.67,1.72-2.71,2.24-2.71,3.6v0.92h3c1.55,0,1.88-.36,1.88-1.65v-1.29h4.85v6.47Z" transform="translate(25.84 -4.54)"/><path d="M228.43,312.51c0,4.13-1.35,7.16-7.49,7.16s-7.43-3-7.43-7.36V304c0-4.09,1.32-7.16,7.46-7.16,6.37,0,7.46,3.14,7.46,7.39v8.28Zm-9.84,0c0,2.28.43,3.6,2.34,3.6s2.38-1.35,2.38-3.63V304c0-2.25-.36-3.6-2.34-3.6s-2.38,1.35-2.38,3.63v8.42Z" transform="translate(25.84 -4.54)"/><path d="M231.89,316.17c0.79-.23,1-0.46,1-1.68V302c0-1.25-.13-1.49-1-1.72v-3.07h6v17.26c0,1.22.13,1.45,1,1.68v3.07h-7v-3.07Z" transform="translate(25.84 -4.54)"/><path d="M256.41,300.2l-7.26,19h-5.38l7.06-18.38h-3c-1.52,0-1.68.63-1.68,1.95v2.28h-4.29v-7.86h14.59v3Z" transform="translate(25.84 -4.54)"/><path d="M22.1,149.07c0.05-1-.18-1.21-1.67-1.74L8.22,143c-1.49-.53-1.83-0.54-2.43.28l-3.15-1.12L5.88,133c1.72-4.81,4.18-6.27,8-4.89,2.88,1,4.08,2.6,4,5.27,1.61-2.6,3.8-3,6.85-2,4.81,1.72,5.43,4.92,3.86,9.33l-3.35,9.39Zm-7.54-11.55c0.73-2,.13-3.16-1.73-3.83-2.1-.75-3.06-0.1-3.79,1.94l-0.58,1.63,5.49,2Zm9.33,5.24,0.65-1.83c0.73-2.15.21-3.37-2.07-4.18s-3.46-.28-4.25,2l-0.64,1.8Z" transform="translate(25.84 -4.54)"/><path d="M28.95,130.31c0.17-.92-0.07-1.24-1.27-1.83l-12-5.94c-1.23-.6-1.6-0.59-2.22.11l-3-1.48,4.41-8.94c1.88-3.81,4.6-5.67,8.93-3.54,2.52,1.24,3.88,3.2,3.46,5.76,1.66-2,3.08-2.09,5.43-.93l1.78,0.88c1.42,0.7,1.82.7,2.33,0.07l3,1.48L37,121.52a20.75,20.75,0,0,1-4.11-1.67l-2.07-1c-1.94-1-3.08-.51-4.19,1.75l-0.49,1,4,2c1.19,0.59,1.55.6,2.19,0l3,1.48-3.36,6.81ZM22.53,119.8L23.41,118c0.89-1.89.39-3-1.65-4-2.23-1.1-3.22-.63-4.29,1.54L16.79,117Z" transform="translate(25.84 -4.54)"/><path d="M38,112.3c0.29-.92.07-1.24-1.23-2.08l-11.32-7.29c-1-.62-1.34-0.65-2,0l-2.82-1.81,9-14,6.17,4L33,95.46l-1.24-.8c-1.21-.78-1.85-0.72-2.59.43l-1.68,2.6,4.75,3.06,2.94-4.57,3.36,2.16-2.94,4.57,5.48,3.53,1.42-2.21c1-1.6.94-2.05-.64-3.07l-1.54-1,2.79-4.33,6.69,4.31-9,14Z" transform="translate(25.84 -4.54)"/><path d="M40.23,73.72l17,8.4c1.38,0.7,1.94.75,2.5,0.41l2.6,2.11-4.68,5.75L55,88.27a1.21,1.21,0,0,0-.58-1.4,13.83,13.83,0,0,0-2-1l-3.18,3.91a13.69,13.69,0,0,0,1.57,1.83,1.07,1.07,0,0,0,1.44.06l2.6,2.11L50.69,98.9l-2.6-2.11c0.08-.67-0.06-1.07-0.9-2.08L35.3,79.77Zm8.92,10.37-5.23-2.64c-0.81-.43-1.62-0.81-2.79-1.53L41.05,80c0.71,0.72,1.38,1.5,2.05,2.32l3.74,4.58Z" transform="translate(25.84 -4.54)"/><path d="M61,81.17c0.47-.81.34-1.19-0.59-2.15L51,69.44c-1-1-1.31-1.08-2.13-.63l-2.34-2.39L52,61.08l2.34,2.39c-0.47.81-.32,1.17,0.62,2.12L58.31,69l-1.14-5.59A5.36,5.36,0,0,0,55.7,60.5l-1.54-1.57,4.78-4.69,2.34,2.39A2.74,2.74,0,0,0,61,58.87l1.4,7.4,8.5,2.3a3.72,3.72,0,0,0,2.9,0L76.19,71l-5,4.94-1.39-1.41A5.42,5.42,0,0,0,67.11,73l-6.6-1.69,3.83,3.91c1,1,1.29,1.11,2.11.66l2.34,2.39-5.45,5.34Z" transform="translate(25.84 -4.54)"/><path d="M75.17,67.53c0.58-.78.47-1.15-0.35-2.2l-8.3-10.55c-0.85-1.07-1.19-1.22-2-.86L62.4,51.29l12.7-10,4.7,6-3.76,3-1.18-1.5c-0.89-1.13-1.32-1.16-2.62-.18L70,50.3l3.74,4.75L78,51.69l2.49,3.17-4.27,3.36,3.16,4c0.67,0.85,1.12,1,1.92.46l2.07,2.63-6.14,4.83Z" transform="translate(25.84 -4.54)"/><path d="M87,33.5l13.53,13.27c1.09,1.1,1.62,1.32,2.25,1.17l1.81,2.82-6.24,4-1.81-2.82a1.21,1.21,0,0,0-.11-1.51,13.58,13.58,0,0,0-1.58-1.59l-4.24,2.72a13.63,13.63,0,0,0,.92,2.23,1.07,1.07,0,0,0,1.35.5l1.81,2.82L89.12,60.7l-1.81-2.82c0.29-.61.28-1-0.21-2.26L80.44,37.73Zm5.25,12.64L88.11,42c-0.64-.66-1.29-1.27-2.18-2.32l-0.09.06c0.45,0.91.85,1.85,1.23,2.85L89.2,48.1Z" transform="translate(25.84 -4.54)"/><path d="M112.2,28.25l-4.67,2.33-0.47-.93c-0.82-1.64-2-2.11-3.33-1.43a2.27,2.27,0,0,0-1.19,3.41c0.79,1.58,1.9,1.71,4.47,1.31l1.67-.27c4.49-.67,6.78.6,8.45,3.95,2.09,4.19,1.24,7.79-4.11,10.46a12.83,12.83,0,0,1-8.11,1.56l-2.72-5.44L107,40.78,107.64,42c0.87,1.74,2,2.32,3.57,1.51,1.9-.95,1.87-2.46,1.16-3.88-0.85-1.71-1.82-2.19-5.25-1.56-4.46.74-7.45,0.3-9.35-3.5-2.14-4.28-.74-7.44,4.06-9.83a13.13,13.13,0,0,1,7.94-1.35Z" transform="translate(25.84 -4.54)"/><path d="M125,37.51c0.85-.7.92-1.15,0.48-2.33L120.3,21.23l-1.18.44a1.11,1.11,0,0,0-.81,1.64l1.55,4.19L116,28.93,112.7,20l17.56-6.5,3.3,8.91-3.85,1.43-1.55-4.19a1.08,1.08,0,0,0-1.65-.73l-1.18.44,5.17,14c0.42,1.15.73,1.46,1.87,1.42l1.16,3.14-7.39,2.74Z" transform="translate(25.84 -4.54)"/><path d="M147.12,26.51l-0.9-4.15,8.59-1.85,0.9,4.15Z" transform="translate(25.84 -4.54)"/><path d="M167.93,26.46c0.88-.32,1-0.69.93-2l-1-13.39c-0.1-1.37-.31-1.67-1.22-1.86l-0.25-3.34,7.75-.58,0.25,3.34c-1,.29-1.14.7-1,2l1.12,14.76,2.48-.19c1.69-.16,2.06-0.52,1.94-2l-0.32-4.27,4.88-.37,0.76,10-16,1.21Z" transform="translate(25.84 -4.54)"/><path d="M186,4.54l7.52,0.23-0.1,3.31c-0.87.3-1,.62-1,1.7l-0.37,11.84c-0.07,2.34.57,3.73,2.33,3.78s2.42-1.22,2.49-3.63l0.35-11.41c0-1.51-.05-1.87-0.87-2.19l0.1-3.31,7.09,0.22-0.1,3.35c-0.87.23-1.06,0.58-1.1,1.7L202,21.53c-0.14,4.5-1.44,8-7.88,7.82-5.94-.18-7.71-3.41-7.57-7.94l0.36-11.55c0-1.33-.09-1.7-1-2Z" transform="translate(25.84 -4.54)"/><path d="M205.5,25.94c0.93-.12,1.16-0.45,1.35-1.76l2-13.28c0.2-1.35.07-1.7-.78-2.08l0.49-3.31,6.48,1,4.17,14.84,1.28-8.69c0.21-1.39.08-1.81-.75-2.08l0.49-3.31,6.55,1-0.49,3.31c-0.93.15-1.12,0.45-1.32,1.77L222.2,31.79,216.86,31l-3.72-12.49c-0.21-.76-0.45-1.63-0.65-2.46l-1.29,8.76c-0.21,1.39-.08,1.81.75,2.08l-0.49,3.31-6.45-1Z" transform="translate(25.84 -4.54)"/><path d="M244.53,21.41L239.31,20l0.77-2.92c0.29-1.11-.24-2-1.67-2.42-1.88-.5-2.82.82-3.48,3.29l-2.23,8.42c-0.73,2.75-.46,4.27,1.38,4.76a2,2,0,0,0,2.75-1.66L237.77,26,243,27.37,241,35a12.89,12.89,0,0,1-7.86,0c-6-1.59-7.11-5.08-5.88-9.71l2.28-8.6c1.23-4.63,3.4-7.48,9.73-5.8a13.51,13.51,0,0,1,7,4.05Z" transform="translate(25.84 -4.54)"/><path d="M244.24,34.09c0.92,0.13,1.24-.21,1.72-1.41l4.92-12.49c0.49-1.24.45-1.64-.29-2.2l1.23-3.12,7,2.76-1.23,3.12c-0.82-.09-1.06.13-1.43,1.06l-1.75,4.45,5,2,1.74-4.42c0.37-.94.35-1.29-0.3-1.78l1.23-3.12,7,2.74-1.23,3.12c-0.93-.1-1.21.22-1.68,1.43L261.2,38.68c-0.49,1.24-.5,1.66.26,2.19L260.23,44l-7-2.74,1.23-3.12c0.83,0.06,1.06-.13,1.4-1L258,31.84l-5-2-2.11,5.36c-0.33.84-.3,1.16,0.37,1.62L250,40l-7-2.76Z" transform="translate(25.84 -4.54)"/><path d="M273.62,42.92l2.11-3.69,7.62,4.37-2.11,3.68Z" transform="translate(25.84 -4.54)"/><path d="M289.15,56.79c0.94,0.37,1.21.21,2.18-1l8-10.22c1-1.25,1.09-1.57.5-2.4l2.06-2.64,7.61,5.93c4,3.14,4.63,5.94,2.11,9.18-1.88,2.41-3.75,3.05-6.25,2.11,2,2.35,1.69,4.56-.3,7.12-3.14,4-6.38,3.61-10.07.73l-7.86-6.13Zm5.43,3.69,1.53,1.2c1.81,1.37,3.13,1.25,4.61-.65s1.35-3.19-.53-4.65l-1.5-1.17Zm7.9-7.21c1.7,1.33,3,1.12,4.18-.44,1.37-1.76,1.06-2.87-.65-4.2l-1.36-1.06-3.59,4.6Z" transform="translate(25.84 -4.54)"/><path d="M327.63,62.64L317.75,78.8c-0.82,1.31-.92,1.87-0.63,2.45l-2.34,2.4-5.31-5.18,2.34-2.4a1.21,1.21,0,0,0,1.45-.45,13.65,13.65,0,0,0,1.2-1.9l-3.61-3.52a13.7,13.7,0,0,0-2,1.4,1.07,1.07,0,0,0-.18,1.43l-2.34,2.4-4.74-4.63L304,68.4c0.66,0.15,1.07,0,2.16-.71L322,57.18Zm-11.13,8,3.1-5c0.5-.77.95-1.54,1.77-2.64l-0.08-.08c-0.78.65-1.61,1.24-2.5,1.84l-4.9,3.32Z" transform="translate(25.84 -4.54)"/><path d="M318.37,82.67c0.77,0.54,1.16.45,2.19-.39l10.39-8.51c1.06-.87,1.2-1.21.82-2.07l2.59-2.12,4.83,5.91-2.59,2.12c-0.77-.54-1.14-0.42-2.17.42l-3.73,3.05,5.67-.64a5.35,5.35,0,0,0,3.06-1.2l1.7-1.39L345.38,83l-2.59,2.12a2.73,2.73,0,0,0-2.2-.48l-7.49.74L330,93.69a3.71,3.71,0,0,0-.24,2.89l-2.62,2.14-4.47-5.46L324.24,92A5.42,5.42,0,0,0,326,89.5l2.28-6.42L324,86.54c-1.06.87-1.22,1.18-.84,2l-2.59,2.12-4.83-5.91Z" transform="translate(25.84 -4.54)"/><path d="M330.69,98c0.72,0.65,1.1.57,2.4-.27l11.3-7.32c1-.63,1.14-1,0.83-1.83L348,86.75l9,13.93-6.17,4-2.8-4.32,1.24-.8c1.21-.78,1.42-1.39.67-2.54l-1.68-2.6-4.75,3.07,3,4.56-3.35,2.17-3-4.56-5.47,3.54,1.43,2.21c1,1.6,1.49,1.7,3.06.68l1.54-1,2.8,4.32-6.68,4.33-9-13.93Z" transform="translate(25.84 -4.54)"/><path d="M341.08,114.26c0.63,0.69,1,.7,2.22.1l12-6c1.22-.61,1.43-0.92,1.26-1.83l3-1.49L364,114c1.89,3.8,1.73,7.1-2.59,9.25-2.51,1.25-4.89,1.15-6.68-.74,0.58,2.53-.2,3.72-2.55,4.89l-1.77.88c-1.42.71-1.66,1-1.47,1.82l-3,1.49L343.18,126a20.71,20.71,0,0,1,3.82-2.26l2.06-1c1.93-1,2.27-2.14,1.15-4.39l-0.5-1-4,2c-1.19.59-1.42,0.87-1.29,1.77l-3,1.49-3.38-6.8Zm12.25,1.26,0.88,1.77c1,1.85,2.14,2.11,4.17,1.1,2.22-1.11,2.45-2.18,1.38-4.34l-0.69-1.38Z" transform="translate(25.84 -4.54)"/><path d="M350.83,135.06c0.56,0.79,1.11.81,2.49,0.3l3.51-1.31,7.32-7.26c1-1,1.22-1.57,1.22-2.3l3.14-1.17,2.38,6.38-2.16.8a6,6,0,0,0-2.34,1.56l-3.29,3,4.24,0.15a7.15,7.15,0,0,0,3-.31l2.19-.82,2.09,5.6-3.14,1.17a2.87,2.87,0,0,0-2.16-.85l-10.38-.85-3.68,1.37c-1.45.54-1.81,0.83-1.7,1.83l-3.14,1.17-2.73-7.32Z" transform="translate(25.84 -4.54)"/><path class="cls-1" d="M249.26,214.64a4.38,4.38,0,0,0-1.48-1.16,6.33,6.33,0,0,0-.87-0.79,10.76,10.76,0,0,0-2.22-1.23,4.48,4.48,0,0,0-.55-0.22,4.67,4.67,0,0,0-.76-0.18l-1.3-1.46-2.42-2.71-0.2-.31-0.26-.21-0.22-.25-0.14-.17a4.27,4.27,0,0,0-.62-0.7l-1-1.19a4.36,4.36,0,0,0-.34-0.39l-0.36-.41a4.32,4.32,0,0,0-.36-0.41l-1.41-1.62-0.23-.26,0,0a4.35,4.35,0,0,0-.29-0.33l-0.22-.26q-0.13-.17-0.28-0.32l-2.5-2.92-1.64-1.93-0.19-.31-0.25-.22c-1.45-1.74-2.57-3.13-3.57-4.45a4.26,4.26,0,0,0-.44-0.6,4.3,4.3,0,0,0-.13-4.86l-0.08-.21a4.29,4.29,0,0,0,.28-1.54,4.37,4.37,0,0,0-4.49-4.33h-2l-1.43-2.91c-0.36-.72-0.72-1.44-1.09-2.16a4.36,4.36,0,0,0-.29-0.56l0-.07q-0.09-.19-0.19-0.38l-0.15-.3a4.25,4.25,0,0,0-.26-0.51c-0.38-.75-0.76-1.51-1.14-2.27s-0.69-1.47-1.06-2.31l0-.13-0.09-.19c-0.41-1-.82-2-1.34-3.35-0.36-.92-0.69-1.85-1-2.78h3l-4-2.81h0l0.19-.11a4.29,4.29,0,0,0,.6-7.76,4.45,4.45,0,0,0-2.19-1.35,4.55,4.55,0,0,0-1.43-.63l-0.08-.23q-0.16-.44-0.3-0.89a4.35,4.35,0,0,0-.36-1.21c-0.24-.86-0.49-1.81-0.77-3-0.59-2.46-1.11-5.06-1.62-7.93a4.13,4.13,0,0,0-.09-0.5c-0.45-2.65-.89-5.55-1.37-9.1-0.31-2.33-.61-4.77-0.89-7.23a4.19,4.19,0,0,0-.11-0.94q-0.25-2.3-.48-4.59a4.28,4.28,0,0,0-.08-0.87c-0.36-3.81-.68-7.69-1-11.84l-0.05-.81,4.71-4.09h-5c0-.74-0.09-1.47-0.13-2.21a4.25,4.25,0,0,0,0-.84q-0.09-1.73-.17-3.45a4.19,4.19,0,0,0,0-1q-0.08-1.79-.15-3.58a4.21,4.21,0,0,0,0-.66q-0.07-1.77-.12-3.54a4.36,4.36,0,0,0,0-.54q-0.09-3.15-.15-6.3a4.18,4.18,0,0,0,0-1.39l0-1.12a4.29,4.29,0,0,0,.1-2.47,4.24,4.24,0,0,0,.14-1.08,4.35,4.35,0,0,0-.13-1,4.26,4.26,0,0,0,2.26-3.77q0-.21,0-0.41c0-.14,0-0.27,0-0.41a4.26,4.26,0,0,0-.5-2,4.3,4.3,0,0,0-1.49-5.64A9.27,9.27,0,0,0,195,49.79c-0.24-.14-0.49-0.26-0.75-0.38a4.4,4.4,0,0,0-.06-0.46,4.38,4.38,0,0,0,.07-0.78c0-.13,0-0.25,0-0.38s0-.25,0-0.38a4.47,4.47,0,0,0,0-.57,4.46,4.46,0,0,0,0-.57c0-.13,0-0.25,0-0.38s0-.25,0-0.38a4.24,4.24,0,0,0-.91-2.65l0-6.08a4.38,4.38,0,0,0-4.51-4.31h-0.2a4.37,4.37,0,0,0-4.51,4.34l0,6.25a4.27,4.27,0,0,0-.77,2.45q0,0.19,0,.38c0,0.12,0,.25,0,0.37a4.41,4.41,0,0,0,0,.58,4.27,4.27,0,0,0,0,.56q0,0.19,0,.38t0,0.37a4.38,4.38,0,0,0,.07.78,4.24,4.24,0,0,0-.07.63,9.41,9.41,0,0,0-4,3.8l-0.14.1A4.29,4.29,0,0,0,177.87,59a4.26,4.26,0,0,0-.51,2c0,0.14,0,.28,0,0.42s0,0.27,0,.41a4.26,4.26,0,0,0,2.26,3.77,4.29,4.29,0,0,0-.13,1,4.35,4.35,0,0,0,.13,1.09,4.27,4.27,0,0,0,.1,2.46q0,0.57,0,1.15a4.21,4.21,0,0,0,0,1.36q0,1.34-.06,2.67a4.1,4.1,0,0,0,0,.45q-0.09,3.47-.21,6.95l-0.21.6,0.16,0.65q-0.07,1.69-.14,3.38a4.22,4.22,0,0,0,0,.8Q179.09,90,179,91.82a4.21,4.21,0,0,0,0,.74q-0.06,1.13-.13,2.26h-5l4.7,4.08,0,0.48c-0.29,4.22-.63,8.37-1,12.35a4.33,4.33,0,0,0-.05.53c-0.32,3.29-.68,6.54-1.07,9.65-1,7.7-1.9,13.55-3.07,19-0.41,1.89-.79,3.45-1.19,4.86a4.22,4.22,0,0,0-.37,1.24c-0.11.37-.23,0.74-0.35,1.08a4.55,4.55,0,0,0-1.44.63,4.45,4.45,0,0,0-2.19,1.35,4.29,4.29,0,0,0,.61,7.77l0.14,0.08-4.09,2.84h3.13l0,0.1-0.2.37-0.05.32c-0.82,2.22-1.54,4-2.25,5.72-0.63,1.46-1.37,2.93-2.16,4.48l-0.62,1.23c-0.9,1.78-1.81,3.64-2.83,5.71h-2a4.37,4.37,0,0,0-4.49,4.33,4.29,4.29,0,0,0,.28,1.54l-0.08.21a4.3,4.3,0,0,0-.13,4.86l0,0a4.28,4.28,0,0,0-.37.49c-1.08,1.42-2.29,2.95-3.72,4.65a4.39,4.39,0,0,0-.3.35c-1.5,1.79-3.07,3.6-4.59,5.36l-0.15.17q-2.12,2.44-4.25,4.89a4.27,4.27,0,0,0-.39.43l0,0-0.11.15-0.29.33-0.21.19-0.14.2-1.84,2.07-0.13.13-0.07.09-1.47,1.63-0.26.28a4.75,4.75,0,0,0-.75.18,4.62,4.62,0,0,0-.55.22,11.8,11.8,0,0,0-2.12,1.16,6.11,6.11,0,0,0-1,.87,4.4,4.4,0,0,0-1.46,1.15,4.29,4.29,0,0,0-2.95,4.08,4.37,4.37,0,0,0,4.49,4.33h27.3a4.37,4.37,0,0,0,4.49-4.33,4.26,4.26,0,0,0-2.21-3.75,14,14,0,0,1,1.34-2.37,4.19,4.19,0,0,0,.5-0.68,19.41,19.41,0,0,1,4.95-4.37c0.32-.21.66-0.41,1-0.61a4.45,4.45,0,0,0,.83-0.45,42.9,42.9,0,0,1,15.51-4.22c1.54-.15,3.21-0.24,5-0.27,7.4,0.14,14.27,1.53,19.35,3.93l1.1,0.55a4.45,4.45,0,0,0,.86.47,20.21,20.21,0,0,1,6.1,5.16,4.17,4.17,0,0,0,.27.36,13.86,13.86,0,0,1,1.27,2.13l0.17,0.38a4.26,4.26,0,0,0-2.22,3.75,4.37,4.37,0,0,0,4.49,4.33h27.31a4.37,4.37,0,0,0,4.49-4.33A4.29,4.29,0,0,0,249.26,214.64Z" transform="translate(25.84 -4.54)"/><path d="M194.67,100l-2-1.65,0.58-.5H191l0.61,0.51-2.13,1.85V97.88h-1.06v2.29l-2.06-1.78,0.61-.51h-2.24l0.58,0.5-2,1.66q0.05-.72.1-1.43l0-.74h-0.86q-0.45,6.72-1.1,13.44a0.17,0.17,0,0,0,0,.11q-0.49,5-1.1,10c-0.8,6.45-1.75,12.91-3.13,19.33-0.41,1.89-.86,3.78-1.41,5.65a0.19,0.19,0,0,0-.07.24l-0.1.34a17.11,17.11,0,0,1-1.48,3.69,3.83,3.83,0,0,1-.21.33h-1.48a0.38,0.38,0,0,0-.43.25v0.34h-0.89a0.38,0.38,0,0,0-.43.25v0.67h-0.72c-0.56,0-.56.51,0,0.51h0.1a2.42,2.42,0,0,0,1.08.63,7,7,0,0,0,1.89.41,2.39,2.39,0,0,1,.28.91,0.55,0.55,0,0,1,0,.23l-0.14.43H175l-0.13-.15h2.83l-0.21.15h2l-0.14-.15h2.75l-0.19.15h2.35l-0.22-.15h4.19l-0.24.15h2.16l-0.24-.15H194l-0.22.15h2.35l-0.19-.15h2.75l-0.14.15h2l-0.21-.15h2.83l-0.13.15h1.67l-0.15-.47a1.39,1.39,0,0,1,.14-0.71,2.21,2.21,0,0,1,.17-0.39,7.36,7.36,0,0,0,1.8-.38,2.49,2.49,0,0,0,1.17-.66H208c0.56,0,.56-0.51,0-0.51h-0.72v-0.67a0.38,0.38,0,0,0-.43-0.25h-0.89v-0.34a0.38,0.38,0,0,0-.43-0.25H204a7.06,7.06,0,0,1-.56-1,18.22,18.22,0,0,1-.73-1.82c-0.18-.51-0.35-1-0.5-1.54a0.2,0.2,0,0,0-.08-0.27c-0.37-1.23-.68-2.47-1-3.7-0.66-2.79-1.22-5.59-1.7-8.39a0.16,0.16,0,0,0,0-.09c-0.54-3.15-1-6.3-1.43-9.45q-0.52-3.86-.95-7.72a0.15,0.15,0,0,0,0-.17q-0.3-2.69-.56-5.38a0.16,0.16,0,0,0,0-.18q-0.6-6.22-1-12.45l-0.06-1h-0.86Q194.6,99,194.67,100Zm-6,50.95H187l1.47-3.5,0.13-.31V151Zm0-5.83,0-.23-0.78-4.14q0.47-2.6.79-5.21ZM188,146.29h-1.4c0.31-1.08.57-2.16,0.79-3.25l0.23,1.22,0.37,2v0Zm0.52-39.47h-0.35l0.35-.28v0.28Zm-2.09-7.53,1.49,1.29h-1.49V99.29Zm0,1.8h1.51l-1.51,1.23v-1.23Zm0,2.09,2.07-1.68v3.75l-2.08-1.83v-0.23Zm0,1.14,1.51,1.33h-1.51v-1.33Zm0,1.84h1.48l-0.8.65h-0.68v-0.65Zm0,1.16h0.05l-0.05,0v0Zm0,0.91,1.11-.91h1v1h-2.09v-0.07Zm0,0.58h2.1v2l-2.1-1.87v-0.09Zm0,1,1.48,1.32h-1.48v-1.32Zm0,1.83h1.83L186.39,113v-1.31Zm0,2.11,2.11-1.52v4.08l-2.12-1.74v-0.82Zm0,1.69,1.52,1.25h-1.52v-1.25Zm0,1.76h1.71l-1.71,1.2v-1.2Zm0,2,2.13-1.49v3.94c0,0.07,0,.15,0,0.22l-2.14-1.61v-1.06Zm0,1.88,1.66,1.25h-1.66v-1.25Zm0,1.76h1.49l-1.49,1v-1Zm0,2.48v-0.7l2.14-1.45q0,2.54-.17,5.07H187.9l-1.52-1.28v-1.64Zm0,2.53,0.47,0.4h-0.47v-0.4Zm0,0.91h0.34l-0.34.22v-0.22Zm0,1,1.24-.83,0.25-.16h0.46q-0.15,2.63-.43,5.25h-1.47l0,0Q186.38,131.84,186.38,129.73Zm0,10.14q0-2.68,0-5.36h1.46q-0.3,2.67-.74,5.34l0,0.29h-0.67v-0.25Zm0,0.76h0.53a0.16,0.16,0,0,0,0,.05l0,0.11q-0.25,1.38-.55,2.76Q186.38,142.1,186.38,140.64Zm-0.82,11.87h-2.07v-0.42h2Q185.55,152.3,185.56,152.51Zm0-46.35v0.65H184l-0.73-.65h2.22Zm-2.18-.51,2.18-1.77v1.77h-2.18Zm2.17,1.67v0.74l0,0-0.87-.78h0.91Zm0,1.73q0,1,0,2.08h-2.71l2.64-2.15Zm0,2.59v1.93l-0.19.14-2.52-2.07h2.71Zm0,3.09v2H182.3l3-2.15Zm0,2.46V119l-0.41.29-2.78-2.09h3.2Zm0,3.22q0,0.95,0,1.89h-3.6l3.17-2.22Zm0,2.4v1.59l-1.18.8-2.83-2.39h4Zm0,2.36v1l-0.68-.57Zm0,1.92v1.13H181l3.23-2.19ZM182,143.28l3-2,0.47-.31q0,2.18,0,4.35V146Zm3.48,6.15V151H184.7A9.62,9.62,0,0,0,185.51,149.43Zm-1.41,1-3.25-1.65,4.66-1.9A16.65,16.65,0,0,1,184.1,150.46Zm1.28,1h0.14v0.09h-2V151.5h1.89Zm-2.56-14.38,2.7-2q0,2.17,0,4.34Zm0.92-5.64,1.77-1.18q0,1.35,0,2.7v0.14Zm1.77-2.74v0.8l-2.25,1.5-2.45-2.3h4.7ZM185.4,134H180l3.17-2.11Zm-0.12.51-3,2.18-2.49-2.18h5.46Zm-0.07,5.62h-6.49l3.53-2.59Zm-0.38.51-3.34,2.23-2.82-2.23h6.16Zm-0.07,5.65h-7.24l3.92-2.62Zm-0.52.51-4.07,1.66-3.27-1.66h7.34ZM183.79,151l0,0h-8.28l4.63-1.89Zm1.74-51.85v1.46h-1.75Zm0,2v1.56l-1.78-1.56h1.78Zm-2.28.47,2,1.72L183,105.1Q183.12,103.33,183.25,101.56Zm-0.41,5.1,0.17,0.15h-0.19v-0.15Zm-0.06.66h0.8l1.1,1h-2Zm-0.13,1.49h2l-2.12,1.72Q182.57,109.68,182.65,108.82Zm-0.31,3.31,2.43,2-2.86,2.05Q182.14,114.15,182.34,112.13Zm-0.58,5.47,2.79,2.09L181.23,122Q181.51,119.8,181.76,117.6Zm-0.88,7.13,0.18-1.39,2.7,2.28-3.32,2.25Q180.66,126.29,180.88,124.72Zm-0.63,4.44,2.42,2.27-3.11,2.07Q179.93,131.33,180.25,129.16Zm-0.94,5.8,2.44,2.14-3.33,2.44Q178.91,137.25,179.31,135Zm-1.61,7.83q0.21-.88.4-1.77l2.82,2.23-3.82,2.55-0.21.14C177.19,144.9,177.46,143.84,177.71,142.79Zm-1.57,5.56c0.13-.36.25-0.73,0.36-1.09l2.94,1.5-4.17,1.7A14.44,14.44,0,0,0,176.14,148.35Zm-4.47,3.74h0.46v0.42h-0.46v-0.42ZM172,153.3a4.69,4.69,0,0,1-.78-0.28h0.36a1.69,1.69,0,0,1,1.14.47C172.45,153.44,172.2,153.37,172,153.3Zm4.67,1.67h-2.33a3.36,3.36,0,0,0-.14-0.58,2.69,2.69,0,0,0-.55-1,2.35,2.35,0,0,0-.44-0.4h3.46v2Zm0-2.47H173v-0.42h3.66v0.42Zm0-.93H173V151.5h3.66v0.09Zm2.89,3.39h-2v-2h2v2Zm0-2.47h-2v-0.42h2v0.42Zm0-.93h-2V151.5h2v0.09Zm3.1,3.39h-2.23v-2h2.23v2Zm0-2.47h-2.23v-0.42h2.23v0.42Zm0-.93h-2.23V151.5h2.23v0.09Zm0.86,3.39v-2h2.1c0,0.65.09,1.31,0.13,2h-2.22Zm2.88-5.8q0-1.14,0-2.27l0-.11h1.48l-0.05.13-1.45,3.44C186.38,150,186.37,149.58,186.37,149.18Zm0,2.32h2.22v0.09h-2.21V151.5Zm0,0.6h2.2v0.42h-2.18Zm0.14,2.88c0-.65-0.07-1.31-0.1-2h2.16v2h-2.07Zm5.1-4.36-1.37-3.26-0.23-.56h1.55l0.06,0.19Q191.67,148.81,191.67,150.62ZM190,146.29l0.27-1.4,0.37-1.92c0.24,1.11.52,2.22,0.84,3.33H190Zm1.68-2.54c-0.23-1-.43-2-0.62-3l0-.14h0.59Q191.67,142.19,191.67,143.75Zm0-3.63h-0.73q-0.5-2.81-.83-5.62h1.56v5.62Zm0-11.16-0.34-.22h0.34V129Zm0-.73H191.2l0.47-.4v0.4Zm0-4.4-1.49-1h1.49v1Zm0-1.52H190l1.66-1.23v1.23Zm0-3.91L190,117.2h1.71v1.2Zm0-1.71h-1.52l1.52-1.25v1.25Zm0-3.73-1.83-1.31h1.83V113Zm0-1.82h-1.48l1.48-1.32v1.32Zm0-3.77-0.05,0h0.05v0Zm0-.55H191l-0.8-.65h1.48v0.65Zm0-1.16h-1.51l1.51-1.33v1.33Zm0-6.37v1.29h-1.49Zm0,1.8v1.23l-1.51-1.23h1.51Zm-2.13.35,2.13,1.74v0.23l-2.12,1.87v-3.83Zm0,5.07,0.38,0.31h-0.37v-0.31Zm0,0.82h1l1.11,0.91v0.07h-2.11v-1Zm0,1.49h2.11v0.09l-2.1,1.87v-2Zm0,7.11v-3.67l2.1,1.51v0.82l-2.09,1.71v-0.37Zm0,1.81,2.08,1.46v1.08l-2.07,1.54v-4.08Zm0,5.47,2.07,1.4v2.34l-1.52,1.28h-0.53Zm0,5.53h0.56l1.49,1V134l0,0h-1.58q-0.28-2.51-.43-5v-0.24Zm0,9V137.5q0.17,1.17.38,2.34,0.08,0.47.17,0.93l-0.52,2.72Zm0,10.28,1.26,3h-1.25v-3Zm0,3.49h2s0,0.06,0,.09h-2V151.5Zm0,0.6h2v0.42h-2v-0.42Zm1.56,2.88h-1.55v-2h2q0,1,0,2h-0.42Zm1.26-55.86,1.75,1.46h-1.75V99.12Zm0,2h1.78l-1.78,1.56Q192.52,101.87,192.52,101.09Zm0,2.79,2.18,1.77h-2.18v-1.77Zm0,2.28h2.22l-0.73.65h-1.48v-0.65Zm0,1.16h0.91l-0.87.78,0,0v-0.74Zm0,1.73,0.07-.06,2.64,2.15h-2.71Q192.52,110.1,192.52,109.06Zm0,2.59h2.71l-2.52,2.07-0.19-.14v-1.93Zm0,3.09,0.24-.19,3,2.15h-3.23Q192.52,115.72,192.52,114.74Zm0,2.46h3.25l-2.82,2.1-0.43-.3v-1.8Zm0,3.24,0.45-.33,3.16,2.21h-3.6v-1.88Zm0,2.38h4l-2.83,2.39-1.18-.8Q192.53,123.62,192.52,122.83Zm0,2.48v-0.12l0.68,0.46-0.68.57v-0.91Zm0,1.8,1.26-1.06,3.23,2.19h-4.49V127.1Zm0,1.63h4.7l-2.45,2.3-2.25-1.5v-0.8Zm5.34,19.72-4.07-1.66h7.34Zm0.06,0.64,4.63,1.89h-8.28l0,0Zm-4.66-2.81,3.28-2.65,3.78,2.53,0.18,0.12h-7.25Zm3.22-3.46-2.88-1.92-0.41-.27h6Zm-3.66-2.71,2.93-2.56,3.42,2.56h-6.35Zm2.87-3.42-2.95-2.21h5.47ZM192.64,134l2.25-2.11,3.17,2.11h-5.43Zm-0.12-3.69,1.77,1.18-1.77,1.66V130.3Zm0,4.85,2.66,2-2.66,2.33Q192.53,137.32,192.53,135.15Zm0,5.8,3.44,2.3L192.53,146Q192.53,143.49,192.53,141Zm0,5.94,4.66,1.9-3.26,1.66a16.2,16.2,0,0,1-1.34-3.3l-0.06-.21v0Zm0,2.52a12.14,12.14,0,0,0,.71,1.39l0.11,0.18h-0.82Q192.53,150.21,192.53,149.43Zm2,5.55h-2q0-1,0-2h2v2Zm0-2.47h-2v-0.42h2v0.42Zm0-.93h-2V151.5h2v0.09Zm3.1,3.39h-2.23v-2h2.23v2Zm0-2.47h-2.23v-0.42h2.23v0.42Zm0-.93h-2.23V151.5h2.23v0.09Zm2.89,3.39h-2v-2h2v2Zm0-2.47h-2v-0.42h2v0.42Zm0-.93h-2V151.5h2v0.09Zm3.21,3.39H201.4v-2h3.44A2.84,2.84,0,0,0,203.75,155Zm1.31-2.47H201.4v-0.42h3.66v0.42Zm0.86-.42h0.46v0.42h-0.46v-0.42Zm0.57,0.93h0.36a4.93,4.93,0,0,1-.68.25,6.47,6.47,0,0,1-.82.22A1.72,1.72,0,0,1,206.49,153Zm-2.87-1.52h1.44v0.09H201.4V151.5h2.22Zm-2.08-4.23a18.24,18.24,0,0,0,1.25,3.2l-4.19-1.71Zm-0.39-1.32-4.08-2.72,2.84-2.29C200.27,142.61,200.67,144.28,201.14,145.95Zm-1.51-6.29-3.38-2.53,2.47-2.16Q199.15,137.31,199.63,139.66Zm-1.17-6.16-3.09-2.06,2.4-2.25Q198.1,131.34,198.47,133.49Zm-0.89-5.65-3.29-2.23,2.68-2.26Q197.26,125.6,197.58,127.84Zm-0.88-6.64,0.1,0.79-3.28-2.3,2.76-2.06Q196.48,119.43,196.7,121.21Zm-0.59-5.05-2.84-2,2.42-2Q195.89,114.15,196.11,116.16Zm-0.57-5.63-2.1-1.71h1.95Q195.46,109.67,195.54,110.53Zm-0.2-2.22h-2l1.1-1h0.79Zm-0.13-1.49H195l0.16-.14v0.14Zm-0.15-1.73-2.22-1.81,1.94-1.71Q194.91,103.33,195.06,105.09Z" transform="translate(25.84 -4.54)"/><path d="M195.57,56.25h0.62c0.56,0,.56-0.51,0-0.51h-0.65c0-.1,0-0.2,0-0.3a4.59,4.59,0,0,0-2.45-3.11,7.47,7.47,0,0,0-2.92-.87V50.35a0.38,0.38,0,0,0-.43-0.25h-0.35V49.71h0.47c0.56,0,.56-0.51,0-0.51h-0.47V49h0.47c0.56,0,.56-0.51,0-0.51h-0.47v-1h0.48c0.56,0,.56-0.51,0-0.51h-0.48V46.66h0.48c0.56,0,.56-0.51,0-0.51h-0.48V45.52h0.48c0.56,0,.56-0.51,0-0.51h-0.49V44.77h0.49c0.56,0,.56-0.51,0-0.51h-0.49l0-6.86V35.8c0-.19-0.29-0.27-0.53-0.24s-0.53,0-.53.24l0,6v2.46H187.9c-0.56,0-.56.51,0,0.51h0.37V45H187.9c-0.56,0-.56.51,0,0.51h0.37v0.63H187.9c-0.56,0-.56.51,0,0.51h0.37V46.9H187.9c-0.56,0-.56.51,0,0.51h0.38v1H187.9c-0.56,0-.56.51,0,0.51h0.38V49.2H187.9c-0.56,0-.56.51,0,0.51h0.38v0.38h-0.38a0.38,0.38,0,0,0-.43.25v1.16c-3.06.43-4.79,2.43-5,4.23h-0.65c-0.56,0-.56.51,0,0.51h0.63v3.53h-0.63c-0.56,0-.56.51,0,0.51h0.63v0.32h-0.63c-0.56,0-.56.51,0,0.51h2q0,2.16,0,4.32c-0.37.07-.37,0.41,0,0.48q0,0.83,0,1.66c-0.34.08-.34,0.39,0,0.47q0,1.46,0,2.92a0.17,0.17,0,0,0,0,.19,0.19,0.19,0,0,0,0,.12q0,1.69-.07,3.37a0.18,0.18,0,0,0,0,.09q-0.09,3.9-.24,7.79a0.13,0.13,0,0,0,0,.07q-0.08,2.16-.18,4.32a0.16,0.16,0,0,0,0,.14q-0.1,2.12-.21,4.24a0.16,0.16,0,0,0,0,.14q-0.08,1.4-.16,2.79,0,0.81-.1,1.61a0.18,0.18,0,0,0,0,.13,0.16,0.16,0,0,0,0,.11q-0.06.89-.12,1.77h0.86l0.07-1,1.19,1H187l1.43-1.2v1.2h1.06V96.61L191,97.88h2.24l1.18-1,0.07,1h0.86q-0.06-.88-0.11-1.75a0.16,0.16,0,0,0,0-.13,0.18,0.18,0,0,0,0-.14q-0.14-2.19-.26-4.37a0.16,0.16,0,0,0,0-.17q-0.11-2.11-.21-4.21a0.16,0.16,0,0,0,0-.17q-0.1-2.14-.18-4.28a0.13,0.13,0,0,0,0-.11q-0.08-2-.14-4.05a0.18,0.18,0,0,0,0-.12q-0.11-3.54-.17-7.07a0.19,0.19,0,0,0,0-.12,0.17,0.17,0,0,0,0-.19q0-1.46,0-2.92c0.33-.08.33-0.4,0-0.47q0-.6,0-1.2c0-.15,0-0.31,0-0.46,0.36-.07.36-0.41,0-0.48q0-2.16,0-4.32h2c0.56,0,.56-0.51,0-0.51h-0.63V60.3h0.63c0.56,0,.56-0.51,0-0.51h-0.63V57.08C195.56,56.81,195.57,56.53,195.57,56.25ZM188.42,90.7l-1.78-1.55,1.77-1.5v3Zm-2-4V85.47l1.29,1.22H186.4Zm1.5,0.51-1.51,1.28V87.2h1.5Zm-1.5-5V81l1.31,1.18H186.4Zm1.41,0.51L186.4,84v-1.3h1.41Zm-1.41-2.62V78.69h1.76l-1.71,1.47Zm0-1.94v-1.1l1.38,1.1H186.4Zm0-3.71v-0.9l0.06,0,1.12,0.95H186.4ZM187.69,75l-1.29,1.14V75h1.29Zm-1.29-2.4V71.44h1.69l-1.59,1.22Zm0-1.64V70l1.3,1h-1.3Zm-1.72-3.35q0-.63,0-1.26l2.72,1.26h-2.73Zm3.08,0.51-1.36,1v-1h1.36Zm0,23h-1.38v-1.2Zm-1.38,3.55,1.21,1.12h-1.21V94.59Zm0-3h1.38l-1.38,1.22V91.55Zm2-5.13-1.76-1.67,1.74-1.61v3.28Zm0-4.5L187,80.62h0l1.41-1.22v2.53Zm0-4.11-1.51-1.2,1.5-1.32V77.8Zm0-3.56L187,73.09l1.35-1v2.18Zm0-3.64-1.46-1.08,1.46-1.06V70.6Zm0-3.24-3.07-1.42h3.07v1.42Zm-3.64-1.93q0-2.15,0-4.31h1.17v4.31h-1.19Zm3.63,0h-1.58V61.12h1.57v4.31Zm0-8v2.34h-2.38l2.37-2.68v0.35Zm-2.58,1.48V56.25h2.36Zm2.57-6.39v3.21h-4.48Zm-3.43,3.72v2.39l-1.39-2.39h1.39Zm1.23-3.8A6.41,6.41,0,0,1,188,52l-4.5,3.24A4.37,4.37,0,0,1,186.09,52.45Zm-2.75,5.14,1.28,2.19h-1.28V57.59Zm0,3V60.3h5v0.32h-5Zm0.52,31.64,1.53,1.41-1.7,1.5Q183.78,93.7,183.86,92.25Zm1.67,5.39-1.64-1.42h1.64Q185.53,96.93,185.53,97.64Zm0-1.93H184.1l1.43-1.26v1.26Zm0-2.86-1.41-1.3h1.41v1.3Zm0-1.81h-1.11l1.11-.94V91Zm0-1.83L184,90.55q0.07-1.36.14-2.72l1.44,1.26v0.12Zm0-1-1.13-1h1.13v1Zm0-1.49h-1l1-.91v0.91Zm0-1.86-1.36,1.26q0.06-1.32.11-2.64l1.25,1.19v0.19Zm0-1.15-1-1h1v1Zm0-1.46h-1.21q0.06-1.48.1-3l1.1,1v2Zm0-2.89-0.72-.65h0.72v0.65Zm0-1.16h-0.45l0.45-.39v0.39Zm0-1.31-1.06.94q0-1.1.06-2.2l1,0.79v0.47Zm0-1.32L184.81,75h0.73v0.58Zm0-1.09h-0.31l0.31-.24v0.24Zm0-1.07-1,.74q0-1.09,0-2.19l0.92,0.78V73.4Zm0-1.55-0.47-.4h0.47v0.4Zm0-.91h-0.6l0.6-.43v0.43Zm0-1.23-0.89.65q0-.83,0-1.65l0.87,0.64V69.7Zm0-1.17-0.6-.44h0.6v0.44Zm0.85,29V96.21H188Zm0-3.86,2-1.78v3.64Zm7.2-40.09a3.58,3.58,0,0,1,1,1.75L189.83,52A5.92,5.92,0,0,1,193.62,53.57Zm-4.26-1.16,4.74,3.34h-4.72V52.41Zm5.1,3.85-1.27,2.23V56.25h1.27Zm-2.13,0v2.87l-2.9-2.87h2.9Zm-2.95.94L192,59.79h-2.61V57.2Zm0,3.93h2.35v4.31H189.4V61.12Zm0,4.82h3.3l-3.29,1.39V65.94ZM191.65,70v0.94h-1.8l1.62-1.05Zm-1.73-1.91h1.73V69l-0.17.11Zm1.73,3.35v1.13l-0.13.11-1.73-1.25h1.86Zm-0.07,2.09,0.08,0.05v0.88h-1.18ZM191.65,75v1.14L190.36,75h1.29Zm0,3.71v1.43l0,0-1.71-1.47h1.76Zm-1.4-.51,1.4-1.13v1.13h-1.4Zm1.4,2.87v1.18h-1.31Zm0,1.69V84l-1.41-1.3h1.41Zm0,4.47v1.28l-1.51-1.28h1.5Zm-1.29-.51,1.29-1.22v1.22h-1.29Zm1.29,4.86v1.22l-1.38-1.22h1.38ZM190.28,91l1.38-1.2V91h-1.38Zm0-23.46,3-1.28q0,0.64,0,1.28H190.3Zm1.35,28.13h-1.21l1.21-1.12v1.12Zm0.95-30.27V61.12h0.72q0,2.15,0,4.31H192.6Zm-3.19,3.08,1.48,1-1.47,1V68.51Zm0,3.47L191,73.12l-1.57,1.34V72Zm0,3.09,1.72,1.52L189.44,78v-2.9Zm0,4.13,1.63,1.4h0l-1.63,1.47V79.2Zm0,3.76,1.93,1.79-1.92,1.83V83Zm0,4.56,1.93,1.63-1.91,1.67v-3.3Zm0,8.11V91.77l2.14,1.89Zm0.58,0.59h1.57v1.31Zm2.42-28.13h0.55l-0.55.36V68.09Zm0,1.11,0.87-.56q0,0.88,0,1.76l-0.89-.59V69.2Zm0,1.37,0.55,0.36h-0.55V70.57Zm0,0.87H193l-0.47.4v-0.4Zm0,1.29,0.92-.78q0,1.07,0,2.15l-1-.69V72.73Zm0,1.47,0.36,0.26h-0.36V74.2Zm0,0.77h0.65l-0.65.52V75Zm0,1.38,1-.81q0,1.13.06,2.25l-1.06-.93V76.35Zm0,1.43L193,78.18h-0.45V77.78Zm0,0.9h0.72l-0.72.65V78.69Zm0,1.58,1.1-1q0,1.48.1,3h-1.2v-2Zm0,2.47h1l-1,1v-1Zm0,1.91,1.25-1.19q0.05,1.32.11,2.63l-1.36-1.26V84.65Zm0,1.13,1,0.91h-1V85.78Zm0,1.42h1.13l-1.13,1v-1Zm0,1.89L194,87.84q0.06,1.35.14,2.71l-1.57-1.33V89.09Zm0,1L193.62,91h-1.11V90.1Zm0,1.45h1.41l-1.41,1.3v-1.3Zm0,2.9,1.43,1.26h-1.43V94.44Zm0,3.2V96.21h1.64Zm1.77-3.44,0.06,0.95-1.69-1.49,1.52-1.4Q194.23,93.23,194.29,94.2Zm0.41-33.79v0.2h-5.32V60.3h5.32v0.12Zm0-.63h-1.35l1.35-2.38v2.38Z" transform="translate(25.84 -4.54)"/><path d="M202.14,156.74l-1.57-1.1h-2l-1,1.09-1.39-1.09h-2.35l-1.76,1.21-1.64-1-0.33-.2h-2.16l-2,1.21-1.76-1.21h-2.35l-1.39,1.09-1-1.09h-2l-1.57,1.1-0.92-1.1h-1.67l-0.2.59q-0.84,2.53-1.76,5.05l-0.08.22,0,0c-0.77,2.11-1.58,4.21-2.47,6.3s-1.89,4-2.88,5.93q-2,4-3.92,8h-4.57c-0.56,0-.56.51,0,0.51h1.05v2.57h-1.05c-0.56,0-.56.51,0,0.51h2.85l-0.08.18h-2.76c-0.56,0-.56.51,0,0.51h-0.61c-0.56,0-.56.51,0,0.51h2.52l-0.22.38c-0.49.85-1.07,1.69-1.66,2.52l-0.59.81a0.21,0.21,0,0,0-.06.09l-0.69.93a0.22,0.22,0,0,0-.08.1c-1.3,1.73-2.68,3.44-4.1,5.14a0.24,0.24,0,0,0-.07.09c-1.6,1.92-3.25,3.82-4.9,5.72q-2.22,2.57-4.47,5.13a0.2,0.2,0,0,0-.11.13l-0.08.09,0,0-0.56.63,0,0-2.1,2.37h0l-1.61,1.79-1,1.06a0.21,0.21,0,0,0-.12.13l-0.36.38h-1a0.56,0.56,0,0,0-.31,0l-0.1,0a8.25,8.25,0,0,0-1.49.79,1.85,1.85,0,0,0-.76,1.14h-0.5a0.38,0.38,0,0,0-.43.25V217a0.18,0.18,0,0,0,.05.12h-0.46c-0.34,0-.47.19-0.39,0.34h-0.76c-0.56,0-.56.51,0,0.51h27.3c0.56,0,.56-0.51,0-0.51h-0.7c0.08-.15-0.05-0.34-0.39-0.34h-0.45a0.18,0.18,0,0,0,.05-0.12,3.6,3.6,0,0,0-.4-2,1.12,1.12,0,0,0-.37-0.35,17.64,17.64,0,0,1,2.8-5.7,0.17,0.17,0,0,0,.11-0.14,23.23,23.23,0,0,1,6.25-5.67q0.74-.47,1.52-0.9a0.4,0.4,0,0,0,.26-0.14,46.7,46.7,0,0,1,17.37-4.86c1.77-.17,3.57-0.26,5.36-0.29,7.59,0.13,15.1,1.49,21.09,4.32q0.85,0.4,1.64.83a0.39,0.39,0,0,0,.26.14,24.4,24.4,0,0,1,7.8,6.6,0.17,0.17,0,0,0,.06.09,18,18,0,0,1,1.77,2.94,16.93,16.93,0,0,1,1,2.78,1.12,1.12,0,0,0-.35.31,3.45,3.45,0,0,0-.43,2.08,0.18,0.18,0,0,0,.05.12h-0.45c-0.34,0-.47.19-0.39,0.34h-0.7c-0.56,0-.56.51,0,0.51h27.3c0.56,0,.56-0.51,0-0.51H247c0.08-.15-0.05-0.34-0.39-0.34H246.1a0.18,0.18,0,0,0,.05-0.12v-0.65a0.38,0.38,0,0,0-.43-0.25h-0.5a1.94,1.94,0,0,0-.76-1.14,7.4,7.4,0,0,0-1.49-.79l-0.1,0a0.56,0.56,0,0,0-.31,0h-1l-0.36-.38a0.21,0.21,0,0,0-.13-0.14c-0.7-.74-1.36-1.5-2-2.25l-2.63-3-0.05-.06-0.54-.61-0.06-.07-0.23-.26a0.2,0.2,0,0,0-.13-0.15L234,205.6a0.25,0.25,0,0,0-.08-0.1l-0.63-.72a0.25,0.25,0,0,0-.09-0.1l-1.64-1.89-0.05-.06-0.23-.26a0.24,0.24,0,0,0-.07-0.08l-0.44-.51a0.24,0.24,0,0,0-.06-0.07L228,198.74l-1.84-2.18-0.05-.06c-1.42-1.69-2.81-3.4-4.11-5.13a0.22,0.22,0,0,0-.12-0.16l-0.69-.94a0.23,0.23,0,0,0-.07-0.1l-0.35-.48,0-.06q-0.54-.76-1-1.52a14.08,14.08,0,0,1-1-1.61h2.53c0.56,0,.56-0.51,0-0.51h-0.61c0.56,0,.56-0.51,0-0.51h-2.76l-0.08-.18h2.85c0.56,0,.56-0.51,0-0.51h-1.05v-2.57h1.05c0.56,0,.56-0.51,0-0.51h-4.58q-1.26-2.59-2.54-5.18c-0.39-.78-0.78-1.57-1.18-2.35a0.18,0.18,0,0,0-.06-0.11l-0.22-.43a0.2,0.2,0,0,0,0-.09l-0.33-.66a0.2,0.2,0,0,0-.05-0.11c-0.43-.84-0.85-1.68-1.26-2.52s-0.84-1.78-1.22-2.68v0c-0.51-1.2-1-2.4-1.44-3.6q-1.59-4.14-3-8.32h-1.67Zm0.19,0.92,2.09,1.47h-3.32Zm1.82,2.85,0.65,0.38H204l-0.25-.15Zm-0.26-.87h0.51l-0.26.15ZM203.59,170l0,0.08-0.09,0Zm0-2.68H207L204.12,169Q203.85,168.14,203.58,167.3Zm0.3,3.51,0.06,0.19q0.29,0.84.61,1.67h-3.84Zm1.16,3.12q0.31,0.77.63,1.54l-2.08-.76-2.11-.78H205Zm-0.14-2.71,2.78,1.17,0.65,0.28h-2.89Q205.16,171.95,204.9,171.22Zm9.24,13.4v-0.53l2.35,0.7h-2.35v-0.11A0.14,0.14,0,0,0,214.14,184.62Zm0.67,0.68h2.08l0.08,0.18h-5.8l-0.09-.18h3.72Zm6.62,9.07h0l0.38,0.3-0.44.33-0.4-.3Zm-0.12-.51,0.46-.32,0.63,0.32h-1.09Zm0.52,2.29-0.31.24h-0.16l-0.36-.27,0.4-.3Zm-1.25-2.56-1.42-.7,0.65-.32,1.3,0.65Zm0.27,1.82-0.4.3-0.4-.3,0.4-.3Zm-0.57,5.14,1,1.16h-3Zm0-1.1,0.18-.11,0.34,0.1h-0.52Zm2.42,5.67,1.1,0.31h-4.37l-0.27-.31h3.54Zm-4-.51-0.69-.79,2.84,0.79h-2.15Zm4.16,0-0.77-.22-4.72-1.32-0.23-.27h0.91l5.65,1.62,0.16,0.18h-1Zm-8.16-4.6,3.46,0-2.29,1.37Zm0.61,1.82-0.62.35,0.26-.75Zm-3-4.52-0.34-.39h0.16l5.92,1.75h-0.88l-0.93-.26Zm2.85,1.36h-1.67L213,198Zm-8.31-6.54,0.33,0.38-0.56-.27Zm-0.13-1.53h1.8l-0.89.46Zm0.47,2.57-0.61.28v-0.56Zm0.69,0.33,0.25,0.12,0.23,0.27H207.1Zm0.41-.82-0.77-.88,0.11-.06,1.29,0.65Zm0.88,0.24v0.54l-0.35-.16-0.14-.16Zm-0.88-1.52,0.88-.45v0.9Zm-1.7-1.3V190h2.58v0.05h-2.58Zm0-.56V189h2.58v0.56h-2.58Zm2.3-1.07h-2.3v-2h2.58v2H209Zm-2.3-2.46h0Zm-2.44-.51-0.08-.18h0.78a0.52,0.52,0,0,0,.25,0h5l0.09,0.18h-6.07Zm-4.44,8.39v-0.08l1.12-.52,1.17,0.61h-2.29Zm0.33,0.51-0.2.08-0.21.1a1.36,1.36,0,0,0-.2-0.18h0.61Zm0.73-3.32-1-.46h1.87Zm0,0.66,1,0.47-0.91.42-0.9-.47Zm-0.68-.32-0.4.21V191.2Zm0.07,1.53-0.47.22v-0.46Zm1.34,0,0.77-.36v0.75Zm-0.08-1.57,0.85-.44v0.84Zm-1.73-1.3V190h2.58v0.05h-2.58Zm0-.56V189h2.58v0.56h-2.58Zm0-1.07v-2h2.58v2h-2.58Zm0-2.46h0Zm-4.94-.51H174.72l0.08-.18h28.45l0.08,0.18h-8.49Zm0.63,1v2h-2.58v-2h2.58Zm-2.58-.51h0Zm2.58,3v0.56h-2.58V189h2.58Zm0,1.07v0.05h-2.58V190h2.58Zm0,0.89v0.63l-0.59-.31Zm-0.66-.33-0.57.31-0.6-.31h1.18Zm-1.2.66-0.71.39v-0.76Zm0.31,2.29,0.57,0.33h-1.21Zm-1-.15v-0.45l0.41,0.24Zm1.06-.54-1-.56,1.26-.7,1.07,0.56Zm1.52-.11v1l-0.91-.53Zm2.18,1.64a3.52,3.52,0,0,0-.4.25q-1-.14-2-0.25h2.4Zm0-2.77,1,0.53-1.07.55-1-.54Zm-0.65-1h1.32l-0.66.34Zm-0.71,1V190.9l0.71,0.37ZM197,193l-0.67.35v-0.7Zm-0.32.84,1-.5,1,0.5h-1.94Zm1.63-.84,0.61-.31v0.63Zm0-1.76,0.56-.29v0.58Zm-2-1.19V190h2.58v0.05h-2.58Zm0-.56V189h2.58v0.56h-2.58Zm0-1.07v-2h2.58v2h-2.58Zm0-2.46h0Zm-6.75,6.43-0.12,0v-0.12l0.12,0,1.22-.51,0.93,0.54-1.09.6Zm0.42,0.8-0.54.3V193Zm-0.54-1.56V191l0.71,0.41Zm1.26,1.86,0.81,0.34h-1.42Zm0.64-.35,0.66-.36v0.64Zm0.16-1.74,0.5-.21v0.5Zm-0.62-.36-0.83-.48h2v0Zm-1.43-1V190H192v0.05h-2.56Zm0-.56V189H192v0.56h-2.56Zm0-1.07v-2H192v2h-2.56Zm0-2.46h0Zm-1,6.43-1.07.45-1.09-.6,0.93-.54,1.22,0.51,0.12,0v0.12Zm0.12,0.57v0.52l-0.54-.3Zm-2.05-1.56-0.5.29v-0.5Zm-0.5-.83v0h2l-0.83.48Zm1.3,2.92,0.62,0.34h-1.42Zm-1.3-.08v-0.64l0.66,0.36Zm1.84-2.08,0.71-.41v0.71ZM186,190.08V190h2.56v0.05H186Zm0-.56V189h2.56v0.56H186Zm0-1.07v-2h2.56v2H186Zm0-2.46h0Zm-4.3.51v2h-2.58v-2h2.58Zm-2.58-.51h0Zm2.58,3v0.56h-2.58V189h2.58Zm0,1.07v0.05h-2.58V190h2.58Zm-1.36,1.57,1.07,0.55-1,.54-1.07-.55Zm0-.67-0.66-.34H181Zm1.37,1.75v0.7L181,193ZM181,191.26l0.71-.37v0.73Zm-1.31,0-0.56.29V191Zm0,1.76-0.61.32v-0.63Zm0.65,0.34,1,0.5h-1.94Zm2.4,1q-1,.11-2,0.25a3.13,3.13,0,0,0-.4-0.25h2.4Zm-0.22-.65v-1l0.91,0.46Zm0.15-1.58,1.07-.56,1.26,0.7-1,.56Zm-0.15-.6v-0.63l0.59,0.32Zm0.66-1h1.18l-0.6.31Zm0.9,2.95,0.64,0.33h-1.21Zm0.61-.36,0.41-.24v0.45Zm-0.31-1.93,0.71-.37v0.76Zm-1.87-1.17V190h2.58v0.05h-2.58Zm0-.56V189h2.58v0.56h-2.58Zm0-1.07v-2h2.58v2h-2.58Zm0-2.46h0Zm-4.3.51v2h-2.58v-2h2.58Zm-2.58-.51h0Zm2.58,3v0.56h-2.58V189h2.58Zm0,1.07v0.05h-2.58V190h2.58ZM178,192.14l-0.9.47-0.91-.42,1-.47Zm-1.69-1.55h1.87l-1,.46Zm2,2.09v0.46l-0.47-.22Zm-0.4-1.29,0.4-.19v0.39Zm-1.34,0-0.85.4v-0.84Zm-0.08,1.57-0.77.4v-0.75Zm0.69,0.32,1.12,0.52v0.08H176Zm1.39,1.11a1.39,1.39,0,0,0-.19.18,2.59,2.59,0,0,0-.39-0.18h0.58ZM170.35,191l-0.89-.46h1.8Zm1,1.19-0.56.27,0.33-.38Zm-1.67-.85-0.88.45v-0.9Zm-0.64,1,1.29-.65,0.11,0.06-0.77.88Zm0.24,0.75-0.14.16-0.35.16V192.9Zm0.55,0.48,0.25-.12,0.85,0.39h-1.34Zm0.94-.45,0.61-.29v0.56Zm-2-3.08V190h2.58v0.05h-2.58Zm0-.56V189h2.58v0.56h-2.58Zm0-1.07v-2h2.58v2h-2.58Zm0-2.46h0Zm-1-.51,0.09-.18h5a0.52,0.52,0,0,0,.25,0h0.78l-0.08.18h-6.07Zm-7,13.17h-1l5.85-1.75H166l-0.34.39ZM165,198l-0.54.62h-1.67Zm-2.87,3.31L159.86,200l2.67,0h0.79Zm1.17,0.82-0.62-.35,0.36-.41ZM145.7,212.45l0.74-.22h0l-0.76.86-0.87,1h-0.56Zm-1.48.58-0.94,1.06h-3l4.13-1.24Zm5.65-6.39-0.79.9h-2.42Zm-5.22.9H144l5.44-1.61h1l-1.07.3Zm5.53,0.51-0.15.17h-0.58l0.15-.17h0.58Zm-1.18.68h0.58l-1.21,1.36-0.78.24,1.11-1.25Zm-2.49,1.72-2.86-1.72H148Zm0.47,1h-0.4l0.14-.16Zm0.09,1.18,2.36,1.46h-3.66Zm0.42-.48,0.17-.2h0.16l3.25,1.95L151.2,214l-0.1.12h-0.47ZM149,212h3.9l-1.33,1.54Zm0-.51,0.51-.15,0.58-.17h3.54l-0.29.33H149Zm3.43,2.16,0.85,0.49,0.74,0.42,0,0a1,1,0,0,0-.4.31l-0.55-.33a2,2,0,0,0-.93-0.43h-0.16Zm1.39,0.1-0.29-.17,1.25,0c-0.07.21-.14,0.41-0.2,0.62l-0.05,0ZM153,213l1.07-1.23,0.35,1.2Zm1.14-2.43h-2.28l3.09-.93Zm-4.18,0h-1.06l0.13-.14,5.71-1.74h1l-0.16.19Zm-0.24-.93,0.71-.8,0.14-.16h2.28Zm0.35-2.14,1.11-1.26,0.6-.17,0.09,0.05-1.22,1.37h-0.58Zm2.44-1,1.66,1H151.6Zm-0.56-1.12,0.27-.31h0.59l-0.1.12-0.08.09-0.37.1h-0.31Zm5.48-4.41,0.39-.44,1.9,1.13h-2.91Zm-0.26-1.57,0.41-.12,0.21,0.13h-0.62Zm0.31-5.85-0.54-.37,1.31-.66,0.65,0.32Zm0.53,1.82-0.4.3-0.4-.3,0.4-.3Zm-1.34-.41-0.44-.33,0.38-.3h0L157,194.7Zm0.4,1.12-0.36.27h-0.16l-0.31-.24,0.44-.33Zm-1.4-2.26,0.63-.31,0.46,0.31h-1.09Zm5.36-2-0.68-.33,0.74-.37v0.68Zm0.06,0.69v0.76l-0.84-.41,0.77-.38Zm-1.41-1.35-1.23-.6h2.44Zm0,0.66,0.67,0.33-0.77.38-0.66-.33Zm-0.1,1.37,1.3,0.64h-2.61Zm4.35-8.54v0.11h-2.35l2.35-.7v0.53A0.14,0.14,0,0,0,163.9,184.69Zm3,0.62h0.06l-0.09.18h-5.8l0.08-.18h5.73ZM173,173.93h3.56l-4.19,1.54Q172.7,174.71,173,173.93Zm-0.39-1.26H169.7l3.46-1.49Q172.9,171.93,172.61,172.67Zm1.56-1.89,3.27,1.89h-4Q173.84,171.73,174.17,170.78Zm-3.28-3.48h3.56q-0.27.85-.56,1.7Zm5.35-5.91-0.27.95-1.6-.95h1.87Zm-1.75-1.25,0.4-.24,0.4,0.24-0.4.24Zm1.4,0.36,0.4,0.24-0.25.15h-0.29l-0.25-.15Zm-0.26-.87h0.51l-0.26.15Zm0.52,5,0.2-.09,2.87,1.59h-3.53Zm3.49-3.2-2.91,1.27,0.37-1.27h2.54Zm-2.14-.66,0.4-.24,0.4,0.24-0.25.15h-0.29Zm1-.6,0.4-.24,0.4,0.24-0.4.24Zm1.4,0.36,0.4,0.24-0.25.15h-0.29l-0.25-.15Zm-0.26-.87h0.51l-0.26.15Zm0.89,2,0.55-.24h0.53l0,0.24-3.94,1.7-0.42-.25Zm0-1.49,0.4-.24,0.4,0.24-0.4.24ZM184,160.5l0.4,0.24-0.25.15h-0.29l-0.25-.15Zm-0.26-.87h0.51l-0.26.15Zm0.92,1.77h10.92c0.65,3.28,1.37,6.56,2.32,9.81a96.77,96.77,0,0,0,3.63,10l0,0,0.21,0.5H176.33l0.21-.5a0.14,0.14,0,0,0,0-.06q0.95-2.32,1.82-4.65c0.49-1.32,1-2.65,1.39-4a0.15,0.15,0,0,0,0-.1c0.3-.95.58-1.9,0.83-2.85,0.66-2.52,1.21-5,1.74-7.57l0.13-.62h2.13Zm-0.06-1.25,0.4-.24,0.4,0.24-0.4.24Zm1.4,0.36,0.4,0.24-0.25.15h-0.29l-0.25-.15Zm-0.26-.87h0.51l-0.26.15Zm0.87,0.51,0.4-.24,0.4,0.24-0.4.24Zm1.4,0.36,0.43,0.25-0.22.13h-0.36l-0.25-.15Zm-0.26-.87h0.51l-0.26.15Zm2.95,0.51,0.4-.24,0.4,0.24-0.4.24Zm1.4,0.36,0.4,0.24-0.25.15h-0.29l-0.25-.15Zm-0.26-.87h0.51l-0.26.15Zm0.87,0.51,0.4-.24,0.4,0.24-0.4.24Zm1.4,0.36,0.4,0.24-0.25.15h-0.29l-0.25-.15Zm-0.26-.87h0.51l-0.26.15Zm3,1.77,4,1.71-0.38.22-3.68-1.58-0.25-.11,0-.24h0.37Zm-0.07-1.25,0.4-.24,0.4,0.24-0.4.24Zm1.4,0.36,0.4,0.24-0.25.15H198l-0.25-.15Zm-0.26-.87h0.51l-0.26.15Zm3,1.77,0.38,1.3-3-1.3h2.66Zm-2.18-1.25,0.4-.24,0.4,0.24-0.4.24Zm1,0.6,0.4-.24,0.4,0.24-0.25.15H200Zm0.76,3.26,0.65,0.28-3.08,1.82h-0.62l-0.06-.26Zm-3.26,1.21q-0.32-1.44-.62-2.88l3.18,1.37Zm3.87-1.57,0.38-.22h0l0.13,0.44Zm0-3.26-0.4-.24,0.4-.24,0.4,0.24Zm-4.83.48-0.05-.26,0.25,0.15Zm-0.2-1.07h0l0-.08v-0.06h0.3ZM199,171.92c-0.25-.82-0.49-1.64-0.71-2.47q-0.15-.58-0.3-1.16l4.23,1.79Zm3.94-1.55,0.29,0.12-3.56,2.09-0.14.08H199.2l0-.15Zm-1.15,4.45-2.11-.84,0-.06h0.23l5.71,2.1-0.32.19Zm2.88,1.75-3.3,2q-0.42-1.08-.83-2.16-0.31-.84-0.61-1.67Zm-0.9,7.78q-0.47-1.07-.91-2.14h1.83l1,0.3v1Zm1.9-.24v0.35l-0.62.28-0.1,0H204.2Zm-3-2.41-0.05-.12,0.4,0.12H202.6Zm2.25,0-2.13-.64-0.43-.13-0.15-.38h0.22l3.86,1.15h-1.36ZM202.7,184l0.33,0.76h-3.5v-2.57h2.41Zm-4-1.8v2.57h-6.23v-2.57h6.23Zm-7.09,0v2.57h-5.1v-2.57h5.1Zm-6,0v2.57h-6.23v-2.57h6.23Zm-11.8,9.49,1,0.47-1.17.56-1-.49Zm-1.57.09V191l0.87,0.4Zm2.58,1v0.51l-0.51-.26Zm-0.33-1.44,0.33-.16v0.31Zm-0.69-.32-1-.49h2.07Zm-1.56-1V190h2.58v0.05h-2.58Zm0-.56V189h2.58v0.56h-2.58Zm0-1.07v-2h2.58v2h-2.58Zm0-2.46h0Zm0.95-4.28h-1.36l0.85-.26,3-.9h0.22l-0.16.38Zm2.3-.12-0.05.12h-0.35Zm-3.08,2.53,1.43,0.67h-0.72l-0.71-.32v-0.35Zm0-.64v-1l1-.3h1.83q-0.45,1.07-.91,2.14Zm3.7-1.25h2.41v2.57H175Q175.58,183.51,176.12,182.23Zm0.61-7,1.43-.57q-0.68,1.92-1.43,3.83l-3.31-2Zm-3.93.95-0.32-.19,2.4-.88,3.31-1.22h0.24l0,0.06Zm5.7-3.89,0.39,0.22,0,0.12h-0.18l-3.83-2.21,0.21-.09Zm-2.74-2.26,3.24-1.39,1.13-.49c-0.32,1.26-.67,2.51-1.05,3.76Zm4.93-4.21-0.06.25H180.5l-3.42-1.9,0.48-.2Zm-2.43-2.16,3.19-1.37q-0.29,1.45-.61,2.89Zm3.7-3.92h0l-0.26-.15H182Zm-0.16.82-0.05.25a0.38,0.38,0,0,0-.17-0.12Zm-4.89-.21-0.4-.24,0.4-.24,0.4,0.24Zm-0.38,3,0.41,0.24-0.5.21,0,0,0.06-.2Zm4,3.22,0,0.19h-0.62a0.55,0.55,0,0,0-.22,0h-4.14l0.06-.19h5Zm-2.13.7-3.54,1.48,0.48-1.48h3.06Zm-3.55-1.21h-2.17l2.5-1.08Zm3.1,2,1.93-.81h0.48l0,0.18-5.18,2.22-0.43-.24Zm0.74,5.07,0,0.09-0.05.15h-5.4l0.09-.24h5.39Zm-6,3.69,3.6,2.12,0.07,0h-0.92l-3.4-1.9Zm-0.8-.29,0.06-.14,0.12,0.07Zm-0.39-1.13-2.56-1.51h3.18Q171.82,174.69,171.5,175.45Zm2.68,3.59h-3.39l0.68-1.51Zm2,0.51h0.16l-0.2.51h-5.8l0.23-.51h5.61Zm-6.26-.51h-2.67l3.26-1.29Zm0.19,1.53h3.7l-3.86,1.15h-0.38Zm-1.46,3.1,0.35-.11,2.57,1.16v0.08h-3.46Zm-0.88-1.29-0.32-.14h0.79Zm2.07,0.93,0.51-.15,1.22,0.57v0.36Zm0.06-1,0.25-.07h1.37l-1.08.33Zm1.28,0.6,0.38-.12v0.29Zm-1.58-.09-0.52.16-0.08,0,0.16-.33Zm-0.93-1.09h0l-2.47-1.15h3Zm-1.4,0h-0.95l-2.56-1.15h1Zm-0.35.91-2.14.64v-1H166Zm0.76,0.34,0.33,0.15,0,0.05-0.07.15-3.13.95v-0.43Zm-2.3,10.6V193l0.55,0.31Zm0.15,1.86-0.4.3-0.41-.31,0.4-.3Zm0.51-1h0l0.43,0.32-0.4.3-0.42-.32Zm0.07-.54,0.45-.23,0.41,0.23h-0.87Zm0.48-.91-1.21-.67v0l0.92-.49,1.41,0.64Zm-1-1.52-0.22.12v-0.22Zm-0.22-.74v-0.11h1.82l-0.95.5Zm1.56,0.71,1-.54v1Zm-1.56-1.33V190h2.58v0.05h-2.58Zm0-.56V189h2.58v0.56h-2.58Zm0-1.07v-2h2.58v2h-2.58Zm0-2.46h0Zm1.83-1.2h-2.31l2.7-.81Zm-3.61,9.07H162.3l0.69-.37,0.75,0.37h-0.16Zm0,1.55-0.4.3-0.4-.3,0.4-.3Zm0.73-4.54,0.16,0.07v0.87l-1-.54Zm-1.45.05-0.61-.34h1.3Zm1.66,3.78-0.4.3-0.4-.3,0.39-.29h0ZM164.5,186h0Zm0,0.51v2h-2.58v-2h2.58Zm0,2.46v0.56h-2.58V189h2.58Zm0,1.07v0.05h-2.58V190h2.58Zm-2.27,1.23-0.31.15v-0.32Zm0.63,0.35,1.18,0.65-1.08.57-1-.52v-0.25Zm-0.54,1.57-0.4.22V193Zm-0.05,1.24h0l0.4,0.3-0.4.3-0.4-.3Zm1.37-1.26,0.86-.46v0.88Zm0.52,2.67,0.4,0.3-0.36.27h-0.07l-0.36-.27Zm-1.88,0,0.4,0.3-0.36.27h-0.07l-0.36-.27Zm0.14,1.08a0.53,0.53,0,0,0,.24,0h1.07l-4.57,1.37,1.29-1.37h0.1a0.53,0.53,0,0,0,.24,0h1.64Zm-2-1.08,0.4,0.3-0.36.27h-0.07l-0.36-.27ZM160,194.7l0.39-.29h0l0.4,0.3-0.4.3Zm-0.15.71-0.4.3-0.4-.3,0.4-.3Zm-0.94-.71-0.4.3-0.4-.3,0.39-.29h0Zm-0.4,1.12,0.4,0.3-0.36.27h-0.07l-0.36-.27Zm0.56,1.08h0.38l-1.63,1.73,0,0h0Zm-0.1,2.26-0.32.09-0.15-.09H159Zm-3.16,2.54h-0.61l0.56-.64,0.53-.6,0.82-.23Zm0,1.1h2.24l-3,.9Zm-1.12-.51,0.07-.08h0.61l-0.07.08h-0.61Zm1-2.21-1.42.4-4,1.13a0.38,0.38,0,0,0-.18.1h-0.46l5.9-1.77h0.31Zm-0.66.75-0.77.87h-2.35Zm-0.17,2-1.15,1.29-0.81.24,1.35-1.53h0.6Zm-1.93,3.27,0.13-.14h5.14l-1.39,1.61h-1.42Zm1.34-.65,1.1-.31h3.54l-0.27.31h-4.37Zm2.92-.82,2.84-.79-0.69.79h-2.15Zm-2,0h-0.95l0.12-.13,5.65-1.67h0.91l0,0-0.19.22Zm1.11-2.31,0.07-.08h5.06l-0.07.08h-5.06Zm4.65-.59-2.7-1.6,0.06-.07a0.22,0.22,0,0,0,0-.07h0.31l2.91,1.74h-0.63ZM166,196.4l-0.35-.26,0.4-.3,0.53,0.4-0.14.16H166Zm0.31,1.27a0.19,0.19,0,0,0,.1-0.12l0.54-.62a1.09,1.09,0,0,0,.15,1h-1Zm0.29-2.23,0.4-.3,0.32,0.24-0.31.36Zm0.6-2.12,0.74-.37v0.78Zm0.77,1.11,0,0h0.18l-0.09.1-0.35.4-0.2-.15Zm4.27-1.72,0.73,0.37-0.73.35V192.7Zm1.39,0.71,0.9,0.46h-1.87Zm0.83,1.38a1,1,0,0,1,1,.29,1.44,1.44,0,0,1,.32.46l-1.24.3a2.89,2.89,0,0,1-.12-0.35A0.66,0.66,0,0,1,174.47,194.79Zm28.75-2.6,1-.47,1.12,0.53-1,.49Zm0.51,0.89-0.51.26v-0.51Zm-0.51-1.53v-0.31l0.33,0.16Zm0-1h2.07l-1,.49Zm0.32,4.17a0.6,0.6,0,0,1,.12.7,1.91,1.91,0,0,1-.12.37l-1.24-.3a1.59,1.59,0,0,1,.28-0.42A1,1,0,0,1,203.54,194.76Zm0-.9,0.9-.46,1,0.46h-1.87Zm1.56-.8,0.73-.37v0.72Zm-0.14-1.67,0.87-.4v0.82Zm-1.71-1.32V190h2.58v0.05h-2.58Zm0-.56V189h2.58v0.56h-2.58Zm0-1.07v-2h2.58v2h-2.58Zm0-2.46h0Zm3.66-3.09-0.38.18v-0.29Zm-0.34-.67h1.37l0.25,0.07-0.54.25Zm1.18,0.93,0.51,0.15-1.73.78v-0.36Zm1.35,0.41,0.36,0.11L210,184.8h-3.47v-0.08Zm3.62,5.4v0.56H210.1V189h2.58Zm-2.58-.51v-2h2.58v2H210.1Zm2.58,1.58v0.05H210.1V190h2.58Zm-0.87,1.06-0.95-.5h1.82v0.11Zm0.87,0.24v0.22l-0.22-.12Zm-1.56.07-1,.46v-1Zm0.65,0.34,0.92,0.49v0l-1.21.67-1.12-.57Zm0.25,2.66,0.39,0.29L212,195l-0.4-.3,0.43-.32h0Zm0.11-1.12,0.55-.31v0.59Zm0.82,1.82,0.4,0.3-0.41.31-0.4-.3ZM212.68,186h0Zm-2.22-2,2.45,0.74,0.25,0.07h-2.31Zm-0.32-.67-0.09-.2,0.33-.15,2.9,0.87v0.43Zm0.15-.94-0.48-.14h0.79Zm-0.27,12,0,0,0.42,0.31-0.2.15-0.44-.51H210Zm0.08-.66v-0.78l0.74,0.37Zm0.94,1.42,0.4,0.3-0.41.31-0.31-.36Zm0-1.27,0.41-.23,0.45,0.23h-0.87Zm0.91,2,0.4,0.3-0.35.26H211.6l-0.14-.16Zm2.78-2h-0.47l0.75-.37,0.69,0.37h-1Zm0.45,1.55-0.4.3-0.4-.3,0.4-.3Zm0-3.81,0.94,0.46v0.26l-1,.51-1.08-.57Zm0-.68-0.69-.34h1.3Zm0.67,0.33,0.31-.17v0.32Zm0.31,1.72v0.41l-0.4-.21Zm-0.36,2-0.4-.3,0.4-.3h0l0.39,0.29Zm0.4,1.12-0.36.27h-0.07l-0.36-.27,0.4-.3Zm0-10.13h0Zm-1.37.51h1.37v2h-2.58v-2h1.21ZM215,189h1.13v0.56h-2.58V189H215Zm0.19,1.07h0.94v0.05h-2.58V190h1.64Zm-1.48.85,0.82,0.4-1,.54v-0.87Zm0.71,2.28-0.87.42V192.7Zm-0.53,1.25h0l0.39,0.29-0.4.3-0.4-.3Zm0,1.42,0.4,0.3-0.36.27h-0.07l-0.36-.27Zm0.24,1.08h1.26a0.53,0.53,0,0,0,.24,0h1.64a0.53,0.53,0,0,0,.24,0h0.1l1.34,1.42Zm3.52-1.08,0.4,0.3-0.36.27h-0.07l-0.36-.27Zm-0.4-1.12,0.4-.3h0L218,194.7l-0.4.3Zm2.17,5.26h0.35l0.1,0.12-2.74,1.63H216.5Zm-0.35-.8h0.48l-0.15.09Zm-1.77,3.05h4.47l0.07,0.08h-5.11l-0.07-.08h0.65Zm5.76,1.46-3-.86h2.24Zm-0.32-1.46h0.55l0.07,0.08h-0.55Zm0.52,0.59h0.55l1.28,1.45-0.74-.21Zm0.55-1.1-0.77-.87,0.33,0.09,2.8,0.78h-2.35Zm-1.43-1.62-0.13-.14h0.23l0.58,0.17,5.39,1.59H228a0.38,0.38,0,0,0-.18-0.1Zm0.46,1.62h-0.55l-0.88-1-0.4-.45,0.73,0.2Zm-2.61-3.05,0,0-1.63-1.73H219l1.31,1.75h0Zm-2-3.24,0.4-.3,0.4,0.3-0.4.3Zm1.3,1-0.36-.27,0.4-.3,0.4,0.3-0.36.27h-0.07Zm0-1.39-0.4-.3,0.4-.3h0l0.39,0.29Zm0.29-1.14H217.2l1.3-.64Zm-1.32-1.3-0.76-.37,0.67-.33,0.75,0.37Zm-1.3-2h2.47l-1.25.61Zm0.55,0.94-0.68.33-0.07,0v-0.68Zm-0.68,1,0.76,0.37-0.84.41v-0.75Zm0,2.89-0.4.3-0.4-.3,0.4-.3Zm-3.82-12.15-2.14-.64,0.88-.4h1.27v1Zm-1.55-1.55h-0.95l2.47-1.15h1Zm-2.33,0h0l-0.54-1.15h3Zm-0.5.88,0.16,0.33L209,183l-0.52-.16Zm-0.8-.88-2.32-.7-1.53-.46H208l0.54,1.15h-0.38Zm-0.55-4,2.25,0.89,1,0.39h-2.66Zm0.15,2.3h-5.79l-0.2-.51h5.76Zm-3.85-1,2.7-1.51,0.68,1.51h-3.38Zm2.69-3.59q-0.32-.76-0.62-1.51h3.18Zm-0.41,1.13-0.17-.07,0.11-.07Zm-0.13.56L202.67,179l-0.06,0H201.7l3.66-2.16Zm-6-3.71h-0.6l-0.08-.24h5.38l0.09,0.24H200Zm2.77-3.71-3.43-1.45-1.6-.68-0.07-.29h0.46l5.12,2.14Zm0.39-3.62L202.86,165l2.51,1.08H203.2Zm0,2.68-2.65-1.11-0.88-.37h3Zm-4.78-2a0.55,0.55,0,0,0-.22,0h-0.1l0.32-.19h4.07l0.06,0.19h-4.13Zm0.86-.7,2.57-1.52h0l0.47,1.52h-3.05Zm2.87-5.6,0.4,0.24-0.25.15H202l-0.25-.15Zm-0.26-.87h0.51l-0.26.15Zm-0.11,1.77h1.89l-1.61,1Zm1-1.25,0.4-.24,0.4,0.24-0.4.24Zm-1-2.91-1.08,1.29-0.55-2.43Zm-1.35,2.4-0.26.15-0.26-.15h0.51Zm-1.16-3.6,0.55,2.43-1.63-1.28Zm-1.54,1.63,1.87,1.46h-3.24Zm-0.57-.44-1.23,1.31L195.52,156Zm-1.85,2.8,0,0.24-0.22.13-0.4-.24,0.4-.24Zm-0.62-4.15,0.4,2.82-2.38-1.47Zm-2.54,1.75,2.46,1.52H189.9Zm-1.78,2-0.26.15-0.26-.15h0.51Zm1.19-2.39-1.79,1.23v-2.33Zm-1.44,3.27,0.4,0.24-0.25.15h-0.36l-0.22-.13Zm-0.61-.36-0.43.25-0.43-.25,0.43-.25Zm-0.81-4.2v2.75l-2.12-1.45Zm-0.5,3.18h-4.67l2.46-1.52Zm-4.75-3.26,2,1.36-0.92.56-1.46.9ZM182.77,160l0.18-.11,0.4,0.24-0.4.24-0.22-.13Zm-0.25-4-0.37,2.56-1.23-1.31Zm-0.79,3.16h-3.24l1.87-1.46Zm-2.91-3.1,1.08,1.15-1.63,1.28Zm-0.9,3.76-0.26-.15h0.51Zm0-3.69-0.55,2.43-1.08-1.29Zm-1,3h-3.32l2.09-1.47Zm-3,1.38,0.4,0.24-0.25.15h-0.79Zm-0.26-.87h0.51l-0.26.15Zm0.5-3.85,1.16,1.38-2.13,1.49Q173.67,157.21,174.14,155.78Zm-1.38,4.05,0.53,0.31-0.81.48Zm-0.57,1.57h1L175.8,163l0,0.14-0.37.16-3.22-1.79Zm-1,2.7q0.39-1,.77-2l2.73,1.51-3.82,1.66-0.14.06Zm-0.77,2,4.9-2.13,0.17,0.09-0.09.29-3.77,1.62-0.41.18H170.4Zm-0.23.56h4.49l-0.06.19h-4.51Zm-0.34.81,3.51,2-0.19.08-3.29-1.9-0.07,0Zm-1.35,3c0.37-.76.72-1.53,1.05-2.29l2.9,1.67L169,171.24l-1.13.47Zm-1,2.09,5.62-2.35,0.37,0.21,0,0.09L170,171.93l-1.73.74h-0.87Zm-0.35.68h1.14a0.54,0.54,0,0,0,.23,0h3.94l-0.1.24H167Zm-0.38.75h1l3.39,2-0.73.27-3.74-2.09Zm-1.38,2.73c0.33-.67.67-1.34,1-2l3.26,1.83-2.65,1-2.46.9Zm4.92,0.18,0.39,0.22-2.87,1.14-2.1.83h-1.38Zm-6.33,2.7h1.78a0.58,0.58,0,0,0,.2,0h3.75l-0.24.51h-5.75ZM163.24,181l1.66,0.75h-2Zm-0.61,1.26h1.27v1.3l-2.22.66Zm-2,2.32a0.15,0.15,0,0,0-.05.11l-0.07.15h-1.18v-2.57h2.41Zm0.72,10.57,0.4,0.3-0.4.3-0.4-.3Zm-2.22-6.81a12.52,12.52,0,0,0,1.09-1.8h0.84v2h-2Zm-0.45.66h2.39v0.56h-2.77ZM157.92,190h3.13v0.05h-3.17Zm-0.52.72,1.58,0.78-0.76.38L157,191.3Zm-0.77,1,0.93,0.46-1.2.6L156,192.6Zm-1,1.33,0.09,0.06-0.24.12Zm0.07,2,0.43,0.32-0.43.32-0.42-.32Zm1.12,1.81a0.53,0.53,0,0,0,.24,0h1.11l-1.06,1.41-2.36-1.41h0.19a0.53,0.53,0,0,0,.24,0h1.64Zm-2.42-.8,0.35-.27,0.41,0.32-0.33.25h0Zm0.23-1.73h0.14l0.4,0.3-0.41.32-0.38-.3Zm-0.68.83,0.26,0.21-0.36.28-0.19-.14Zm-0.7.85,0.45,0.34h-0.73Zm0.29,0.85,0,0,2.89,1.73h-0.66l-2.94-1.75h0.68Zm-1.3.35,2.35,1.4H151Zm-1.62,1.91h4.83l0.25,0.15-0.39.12-4.09,0H150.4Zm-0.63.73,3.66,0-5,1.48Zm-2,2.32h5.81l-0.07.08h-5.81Zm-0.51.59h5.8l-1.59,1.8h-1.23l-3-1.78h0Zm-0.42.49,2.19,1.31h-3.33Zm-1.58,1.82h4.62l0.05,0-0.93.28h-4Zm-0.71.82h2.73L143.8,207ZM142.89,208h5.74l-0.15.17h-5.74Zm-0.6.68h0.14l3.15,1.89H145l-2.82-1.75h0Zm-0.54.61,2.06,1.28h-3.21Zm-1.6,1.79h4.48l0.11,0.07-0.85.26h-4Zm-0.75.84h2.83l-3.9,1.19Zm-1.81,2,6.52-2h1.05l-0.1.12-6.71,2h-0.89Zm6.76,2.79H132.75V216.6h0.46a0.55,0.55,0,0,0,.33-0.09h13.81c0.56,0,.56-0.51,0-0.51H133.72a1.5,1.5,0,0,1,.61-0.78,7.42,7.42,0,0,1,1.17-.62h16.56l1.57,0.93a0.52,0.52,0,0,0,.74-0.18h0v0a1.06,1.06,0,0,1,.06-0.17,0.34,0.34,0,0,1,.23-0.23,0.66,0.66,0,0,1,.42.55,4,4,0,0,1,.19,1.26H144.36Zm10.8-4.11-0.43-1.46h1.1Q155.45,211.9,155.15,212.63Zm-0.12-2,0,0,0.62-.72,0.15,0.75H155Zm1.16-2.45H151l0.15-.17h5.19Zm0.36,1.69-0.11-.52,0.55-.15Q156.76,209.56,156.55,209.9Zm0.94-1.36-0.79.21,4.61-5.31a0.19,0.19,0,0,0,.1-0.12l0.89-1,1.24,0.69A24,24,0,0,0,157.49,208.54Zm2.42-9.07,1.08-.3H164l-0.29.33Zm4.4,3-0.4-1.15,1.3,0.62Zm-0.42-1.81,0.93-.54,0.41,1.19Zm0.83-1.19,0.91-1.05h1.23Q165.76,198.94,164.72,199.5Zm2.43,0.76-1.39-.63,1-.5Zm-1,1.19-0.42-1.19,1.47,0.66Zm1.95-.94-0.39-1.21,1.52,0.73Zm-0.33-1.83,0.94-.39,0.41,1Zm0.25-.73a2.71,2.71,0,0,1-.17-0.31c-0.05-.12-0.25-0.55,0-0.61a2.31,2.31,0,0,1,1.1.24l0.38,0.16Zm2.13,1.72-0.39-1,1.16,0.7Zm-0.48-1.76,1.3-.46,0.14,1.33Zm0.53-.79a5.26,5.26,0,0,1-.44-0.47c-0.15-.18-0.56-0.65-0.25-0.84a1.86,1.86,0,0,1,1.37.39,5.19,5.19,0,0,1,.66.47ZM172,199l-0.14-1.39,1.69,0.92Q172.76,198.77,172,199Zm0.1-1.95,1-.31,0.34,1.06Zm0.22-.64a5,5,0,0,1-.48-0.51c-0.13-.16-0.57-0.68-0.21-0.82a1.77,1.77,0,0,1,1.47.42,3.38,3.38,0,0,1,.58.52Zm1.15-1.42a2.75,2.75,0,0,0-2.28-.34,0.62,0.62,0,0,0-.55.74,2.24,2.24,0,0,0-1.61,0c-0.65.27-.57,0.75-0.28,1.2a2.56,2.56,0,0,0-1.32,0,1,1,0,0,0-.33.17l2.06-2.38H174A0.79,0.79,0,0,0,173.47,195Zm1,3.27-0.38-1.17,1.71,0.84Zm-0.33-1.81,1.62-.4,0.14,1.27Zm1.81-1.82a2.1,2.1,0,0,0-.53-0.28h0.9A1,1,0,0,0,176,194.66Zm0.85,0.14a1.08,1.08,0,0,1,.87.08,1.21,1.21,0,0,1,.28.19h0l-1.38.27A0.73,0.73,0,0,1,176.83,194.81Zm0,2.93-0.14-1.21,1.53,0.93Zm1.66-.85-1.7-1,1.78-.35Zm0.85-2.26a0.79,0.79,0,0,1,.5.14l-0.81.13A0.69,0.69,0,0,1,179.34,194.63Zm0,2.63,0.08-1.32,1.36,1.1Zm1.68-.89-1.31-1.06,1.43-.21Zm0.81,0.53,0.12-1.3,1.33,1.13Zm1.77-.79L182.24,195l1.78-.19Zm0.7,0.53,0.4-1.22,0.85,1.12Zm1.68-.76-0.91-1.2,1.48-.1Zm0.63,0.6,0.62-1.42,1.21,1.35Zm1.12-2,1.31,0,1.3,0L189,196Zm1.9,1.88,1.21-1.35,0.62,1.42Zm1.89-1.82,1.47,0.1-0.91,1.2Zm1,2,0.85-1.12,0.39,1.21Zm1.51-1.77,1.78,0.19-1.35,1.15Zm1.52,2-0.77-.08,1.32-1.13,0.12,1.29Zm1.37-1.71,1.43,0.21L197,196.37Zm0.37,1.93,1.35-1.09,0.08,1.31Zm0.92-2.26a0.78,0.78,0,0,1,.5-0.14,0.59,0.59,0,0,1,.32.27Zm1.27,0.74,1.78,0.35-1.7,1Zm1.74,2.22-1.38-.28,1.52-.92Zm-1.16-2.65a1.29,1.29,0,0,1,.22-0.16,1.15,1.15,0,0,1,.92-0.13,0.58,0.58,0,0,1,.24.56Zm2-.42a1.11,1.11,0,0,0-.37-0.29h0.91a2,2,0,0,0-.52.27Zm0.2,1.41,1.62,0.4-1.76.87Zm1.29,2.21-1.32-.33,1.7-.84Zm2.5,0.74q-0.77-.25-1.55-0.48l1.7-.92Zm-1.48-1.21,0.34-1.06,1,0.31Zm1.16-1.38-1.36-.38a2.24,2.24,0,0,1,2-.94c0.35,0.11-.07.64-0.18,0.77A4.32,4.32,0,0,1,205.73,196.44Zm2.16,3.24-0.77-.28,1.16-.7Zm-1-.9,0.14-1.33,1.3,0.46Zm1.34-2.12a4.59,4.59,0,0,1-.44.47l-1.34-.45a5.83,5.83,0,0,1,.66-0.47,1.84,1.84,0,0,1,1.37-.39C208.86,196,208.42,196.49,208.28,196.65Zm1.93,0.93a2.32,2.32,0,0,1-.18.36h0l-1.36-.53a2.86,2.86,0,0,1,1.49-.39C210.42,197.06,210.25,197.48,210.21,197.58Zm0.06,1.09-1.35.65,0.41-1Zm-0.33,1.83L208.8,200l1.53-.73Zm0.67-3.92a2.18,2.18,0,0,0-1.32,0c0.29-.45.36-0.93-0.29-1.19a2.25,2.25,0,0,0-1.62,0,0.67,0.67,0,0,0-.54-0.75,2.81,2.81,0,0,0-2.28.35h0a0.83,0.83,0,0,0-.49-0.65h4.8l0.31,0.36,2.43,2.81a0.19,0.19,0,0,0,.1.12l0.23,0.27h-1A0.82,0.82,0,0,0,210.61,196.59Zm0.64,2.54,1,0.5-1.39.63Zm0.63,2.32-1.05-.52,1.47-.67Zm-0.71-3h1.23l0.32,0.37c-0.09.14,0,.32,0.3,0.35l0.29,0.33Q212.29,198.94,211.18,198.44Zm2.56,4-0.9-.53,1.29-.62Zm-0.93-1.16,0.41-1.19,0.37,0.21,0.56,0.34Zm1.19-2.16h3.05l1.08,0.3-2.62,0h-1.23Zm0.52,3.82,1.23-.69,0.71,0.82,0.18,0.21a0.19,0.19,0,0,0,.1.12l4.61,5.31-0.8-.21A23.73,23.73,0,0,0,214.52,203Zm7,6.93q-0.21-.35-0.45-0.69l0.56,0.15Zm-0.23-2.37-1.39-1.61h5.18l0.11,0.13-2.48,1.48h-1.42Zm4.32-1,0.89,1H223.9Zm-0.28-1.42h0.55l0.15,0.16,0.13,0.14h-0.31l-0.32-.09Zm8.5,9h-0.56l-1.57-1.78,0.06,0,0.63,0.19,0.74,0.83Zm-0.13-1.24,4.13,1.24h-3Zm-4.6-2.38,0.12,0.14h-1.08l-5.65-1.7-0.16-.19h1Zm-3.86-1.75h2.31l0.85,1Zm3.79,2.72h-4.34l-0.29-.33h3.54Zm-2.79-.84h-2.28l-0.21-.24-0.59-.68Zm-2.21,1.2,1.07,1.23-1.42,0Zm0.51,1.73-0.22.13-0.7.42-0.17.09q-0.1-.34-0.22-0.67Zm-0.5,1,0.71-.42,0.85-.53,0.41,0.47a1.11,1.11,0,0,0-.6.15l-1,.62a1.09,1.09,0,0,0-.34-0.28h0Zm1.08-2.6h3.58l-2.36,1.41Zm1.65,1.88,3.15-1.88h0.49l0.23,0.26L227.75,214l-0.06,0H227l-0.22-.25h0ZM231,212.7l0.48,0.55,0.75,0.85h-3.42Zm-0.19-1.31,0.36-.22,0.24,0.28h-0.55Zm0.58-1.07-1.33-1.5-0.08-.1h4.09Zm-1,0-0.4-.12-0.35-.11-1.21-1.37H229Zm-1.5-2.79-0.79-.9,0.09,0,3.12,0.87H229Zm-0.52.51,0.15,0.17H228l-0.15-.17h0.55Zm-1-.51-1.23-1.38,0.06,0,0.6,0.17,1.11,1.26h-0.55Zm-5.74.51h5.22l0.15,0.17h-5.22Zm0.65,1.86,0.65,0.75h-0.81Zm-0.15,1.26h1.11l-0.43,1.47Q222.59,211.9,222.21,211.17Zm20.33,3.43a8.34,8.34,0,0,1,1.18.62,1.44,1.44,0,0,1,.61.78h-14c-0.56,0-.56.51,0,0.51h14.15a0.54,0.54,0,0,0,.34.1h0.46v0.14H222.77a4.44,4.44,0,0,1,.17-1.21,0.8,0.8,0,0,1,.4-0.6,0.28,0.28,0,0,1,.25.19,0.94,0.94,0,0,1,.08.18v0.05a0.52,0.52,0,0,0,.74.18l1.57-.93h16.56Zm-2-.51h-0.89l-6.71-2-0.1-.12h1.05l0.24,0.07,6.29,1.92Zm-1.25-1.36,0.39,0.43-3.92-1.2h2.83Zm-1.15-1.28h-4l-0.78-.24,0.14-.09h4.38Zm-0.75-.84H234.3l2-1.27Zm-1.68-1.89,0.12,0.13-2.74,1.75h-1l3-1.81,0.07,0,0.05,0h0.44Zm-0.45-.51h-5.74l-0.15-.17h5.74Zm-1.91-.68-5.76-1.61h1.32l0.21,0.06,5.39,1.55h-1.15Zm-0.09-1.61,0.8,0.92-3.19-.92h2.39Zm-0.44-.51h-3.72l-1.07-.31h4.52ZM231,203.29l1.14,1.31h-3.34Zm-0.41-.48-3,1.79h-1.23l-1.59-1.8h5.82Zm-0.45-.52h-5.82l-0.07-.08h5.82Zm-2.07-2.4,1.31,1.52-5-1.49,2.5,0h1.23Zm-0.43-.51-5,0-0.33-.1,0.28-.17h4.82Zm-0.63-.74h-3.53l2.35-1.4Zm-4.75,0h-0.66l2.88-1.72h0l0,0h0.68Zm2.85-2.26h-0.73l0.45-.34Zm-1-1.19,0.28,0.34-0.19.14-0.36-.28Zm-0.82-.83h0.15l0.26,0.32-0.39.3-0.41-.32Zm0,1.45,0.35,0.27-0.39.29h0l-0.33-.25Zm-0.19,1.07h0.19L221,198.32l-1.06-1.41H221a0.53,0.53,0,0,0,.24,0h1.64A0.53,0.53,0,0,0,223.13,196.91Zm-0.76-1.17-0.43-.32,0.43-.32,0.42,0.32Zm0.07-2.64,0.16,0.21-0.27-.14Zm-1-1.32,0.62,0.81h0l-0.36.25-1.19-.6Zm-0.36-.48-1.24.61-0.74-.37,1.59-.78Zm-0.89-1.21H217V190h3.15Zm-0.81-1.15,0.41,0.58H217V189h2.17A0.68,0.68,0,0,0,219.36,188.94Zm-1.52-2.43c0.08,0.17.19,0.35,0.28,0.52,0.28,0.48.59,1,.91,1.43h-2v-2h0.85Zm0.89-4.28v2.57h-1.18l-0.07-.14a0.15,0.15,0,0,0-.05-0.11l-1.12-2.31h2.41Zm-2.36,2-2.22-.66v-1.3h1.27Zm-1.19-2.47h-2l1.66-.75Zm-1.06-2.17,0.25,0.51h-5.75l-0.23-.51h3.75a0.58,0.58,0,0,0,.2,0h1.78Zm-1.76-.51-5-2,0.39-.22,2.86,1.05,3.1,1.14h-1.38Zm-0.65-4.38q0.93,1.85,1.84,3.71l-5.11-1.88Zm-0.28-.55-3.75,2.1-0.73-.27,3.27-1.93,0.12-.07h1Zm-0.34-.68h-5.35l-0.09-.24h3.94a0.55,0.55,0,0,0,.23,0H211Zm-0.46-.92,0.08,0.16h-0.89l-5.16-2.18,0-.1,0.39-.23,3.63,1.52Zm-0.4-.79-4.6-1.92,2.88-1.69C209,169.32,209.62,170.52,210.22,171.72Zm-2-4.36,0.08,0.18-3.35,2-0.27-.11,3.35-1.92Zm-0.31-.75,0.08,0.19h-4.52l-0.06-.19h4.5Zm-0.21-.51h-0.82l-4.19-1.8,0-.16,0.24-.14,4.18,1.79,0.63,0.27Zm-0.32-.8-3.89-1.67,2.65-1.57Q206.7,163.68,207.33,165.29Zm-1.45-3.83h0l-3.13,1.85-0.45-.19-0.05-.17,2.64-1.56h1Zm-0.33-.92,0,0.08-0.82-.49,0.54-.32Zm-0.67-1.89-2.14-1.5,1.16-1.38,0.06,0.17Q204.41,157.3,204.89,158.66Z" transform="translate(25.84 -4.54)"/><path d="M3,249.87s47-11.55,73.83-8.66l1.65,61.06s-55.68,7-75.06,11.12l14.44-35.06Z" transform="translate(25.84 -4.54)"/><polygon class="cls-6" points="104.34 235.03 78.3 275.02 64.74 282.88 104.34 297.73 104.34 235.03"/><path d="M375,249.83s-47-11.55-73.83-8.66l-1.65,61.06s55.68,7,75.06,11.12l-14.44-35.06Z" transform="translate(25.84 -4.54)"/><polygon class="cls-6" points="325.36 234.99 351.39 274.98 364.95 282.83 325.36 297.68 325.36 234.99"/><path d="M339.15,287.4S305.33,276.27,189,276.27,38.9,287.4,38.9,287.4V223.06S90,211.93,189,211.93s150.13,11.14,150.13,11.14V287.4Z" transform="translate(25.84 -4.54)"/><path class="cls-1" d="M189,211.93c-99,0-150.13,11.14-150.13,11.14v1.74S90,213.67,189,213.67,339.15,224.8,339.15,224.8v-1.74S288,211.93,189,211.93Z" transform="translate(25.84 -4.54)"/><path class="cls-1" d="M50.55,262.77c0.82-.39.94-0.76,0.72-2l-2.16-12.87c-0.22-1.31-.44-1.59-1.35-1.69L47.23,243l7.46-1.25,0.54,3.21c-0.9.36-1,.78-0.83,2.05l2.38,14.19,2.38-.4c1.62-.31,1.94-0.68,1.71-2.1l-0.69-4.11,4.69-.79,1.61,9.63L51.09,266Z" transform="translate(25.84 -4.54)"/><path class="cls-1" d="M71.08,259.47c0.87-.36,1-0.72.78-2.21l-1.62-13c-0.14-1.11-.35-1.4-1.24-1.5l-0.4-3.23,16-2,0.88,7.08-5,.62-0.18-1.42c-0.17-1.39-.62-1.83-1.94-1.66l-3,.37L76.11,248l5.24-.65,0.48,3.85-5.24.65,0.78,6.29,2.54-.32c1.84-.23,2.11-0.58,1.89-2.39l-0.22-1.77,5-.62,1,7.68-16,2Z" transform="translate(25.84 -4.54)"/><path class="cls-1" d="M103.89,255.86c0.89-.31,1-0.67.91-2l-1-13c-0.1-1.33-.3-1.63-1.19-1.81l-0.24-3.25,15.67-1.17,0.55,7.36-4.64.34-0.14-1.85c-0.1-1.4-.44-1.65-2-1.57l-2.76.21L109.5,245l5.27-.39,0.29,3.91-5.27.39,0.37,5c0.08,1,.38,1.38,1.3,1.41l0.24,3.25-7.57.56Z" transform="translate(25.84 -4.54)"/><path class="cls-1" d="M124.85,254.38c0.86-.29,1-0.64,1-1.94l-0.6-13c-0.06-1.33-.25-1.63-1.14-1.84l-0.15-3.25,9.68-.45c4.13-.19,7,1.25,7.21,5.94,0.13,2.73-.9,4.81-3.28,5.65,2.47,0.48,3.23,1.64,3.35,4.19l0.09,1.92c0.07,1.54.26,1.88,1,2l0.15,3.25-6,.28a20.17,20.17,0,0,1-.51-4.29l-0.1-2.24c-0.1-2.1-1-2.86-3.46-2.75l-1.08,0,0.2,4.3c0.06,1.29.21,1.6,1.07,1.84l0.15,3.25-7.38.34Zm5.93-10.4,1.92-.09c2-.13,2.72-1.07,2.62-3.27-0.11-2.41-1-3-3.32-2.93l-1.5.07Z" transform="translate(25.84 -4.54)"/><path class="cls-1" d="M147.42,253.41c0.9-.26,1-0.62,1-2.12l-0.27-13.08c0-1.12-.21-1.43-1.08-1.62L147,233.33l16.13-.34,0.15,7.14-5,.11,0-1.43c0-1.4-.42-1.88-1.75-1.85l-3,.06,0.11,5.49,5.28-.11,0.08,3.88-5.28.11,0.13,6.33,2.55-.05c1.85,0,2.16-.36,2.12-2.18l0-1.78,5-.1,0.16,7.73-16.13.34Z" transform="translate(25.84 -4.54)"/><path class="cls-1" d="M169.21,253c0.88-.24,1.05-0.59,1.06-1.89l0-13.06c0-1.33-.17-1.65-1-1.89v-3.26l6.37,0,6.08,13.71,0-8.54c0-1.37-.17-1.75-1-1.89V233l6.44,0v3.26c-0.88.28-1,.59-1,1.89l-0.06,18.2-5.25,0-5.32-11.5c-0.31-.7-0.66-1.51-1-2.28l0,8.61c0,1.37.17,1.75,1,1.89v3.26l-6.34,0V253Z" transform="translate(25.84 -4.54)"/><path class="cls-1" d="M208.19,241.67l-5.25-.13L203,238.6c0-1.12-.69-1.87-2.12-1.91-1.89,0-2.49,1.41-2.55,3.89L198.13,249c-0.07,2.76.53,4.14,2.38,4.19a1.94,1.94,0,0,0,2.23-2.18l0.09-3.53,5.25,0.13-0.19,7.63a12.53,12.53,0,0,1-7.43,1.77c-6.05-.15-7.87-3.21-7.75-7.86l0.22-8.64c0.12-4.65,1.53-7.84,7.9-7.68a13.15,13.15,0,0,1,7.54,2.26Z" transform="translate(25.84 -4.54)"/><path class="cls-1" d="M213.79,253.77c0.88-.17,1.08-0.58,1.14-1.84l0.61-13c0.06-1.29-.1-1.65-1-1.94l0.15-3.25L222,234l-0.15,3.25c-0.78.17-.93,0.45-1,1.43l-0.22,4.65,5.21,0.24,0.22-4.61c0-1-.08-1.3-0.84-1.55l0.15-3.25,7.27,0.34-0.15,3.25c-0.89.2-1,.58-1.1,1.84l-0.61,13c-0.06,1.29.06,1.68,0.93,1.93l-0.15,3.25-7.27-.34,0.15-3.25a1.11,1.11,0,0,0,1-1.36l0.26-5.52-5.21-.24-0.26,5.59c0,0.87.09,1.16,0.85,1.37l-0.15,3.25-7.31-.34Z" transform="translate(25.84 -4.54)"/><path class="cls-1" d="M265.09,245l-5.23-.4,0.22-2.93c0.09-1.12-.59-1.91-2-2-1.88-.14-2.55,1.28-2.75,3.76l-0.65,8.45c-0.21,2.76.31,4.17,2.16,4.31a1.94,1.94,0,0,0,2.33-2.07l0.27-3.52,5.23,0.4-0.58,7.61a12.53,12.53,0,0,1-7.51,1.39c-6-.46-7.69-3.61-7.34-8.25l0.66-8.62c0.36-4.64,1.93-7.75,8.28-7.26a13.14,13.14,0,0,1,7.42,2.64Z" transform="translate(25.84 -4.54)"/><path class="cls-1" d="M283.67,238.46l2.39,18.26c0.17,1.49.45,2,1,2.24l-0.31,3.24-7.18-.68,0.31-3.24a1.18,1.18,0,0,0,.82-1.22,13.12,13.12,0,0,0-.25-2.17l-4.88-.46a13.34,13.34,0,0,0-.64,2.26,1,1,0,0,0,.73,1.19l-0.31,3.24-6.41-.61,0.31-3.24c0.59-.3.83-0.62,1.2-1.86l5.65-17.68Zm-3.57,12.81-0.7-5.66c-0.09-.89-0.22-1.74-0.27-3.08H279c-0.2,1-.46,1.92-0.77,2.92l-1.68,5.5Z" transform="translate(25.84 -4.54)"/><path class="cls-1" d="M291.91,259.47c0.93-.14,1.11-0.47,1.25-1.76l1.45-13c0.15-1.32,0-1.65-.83-2l0.36-3.24,15.62,1.75-0.82,7.34-4.63-.52,0.21-1.84c0.16-1.39-.13-1.71-1.69-1.91l-2.75-.31-0.65,5.84,5.25,0.59-0.44,3.9-5.25-.59-0.55,4.94c-0.12,1,.12,1.42,1,1.63l-0.36,3.24-7.55-.84Z" transform="translate(25.84 -4.54)"/><path class="cls-1" d="M312.8,261.86c0.93-.13,1.12-0.46,1.31-1.95l1.67-13c0.14-1.11,0-1.45-.83-1.76l0.41-3.23,16,2.05-0.91,7.08-5-.64,0.18-1.42c0.18-1.39-.14-1.92-1.46-2.09l-3-.38-0.7,5.45,5.24,0.67-0.49,3.85-5.24-.67-0.81,6.28,2.53,0.33c1.84,0.24,2.19,0,2.42-1.84l0.23-1.77,5,0.64-1,7.67-16-2.05Zm11.72-20.94-2.5-.32,2.81-3.2,4.17,0.54Z" transform="translate(25.84 -4.54)"/></svg>